<?xml version="1.0" encoding="UTF-8" standalone="no"?>
<!-- Created with Inkscape (http://www.inkscape.org/) -->

<svg
   xmlns:dc="http://purl.org/dc/elements/1.1/"
   xmlns:cc="http://creativecommons.org/ns#"
   xmlns:rdf="http://www.w3.org/1999/02/22-rdf-syntax-ns#"
   xmlns:svg="http://www.w3.org/2000/svg"
   xmlns="http://www.w3.org/2000/svg"
   xmlns:sodipodi="http://sodipodi.sourceforge.net/DTD/sodipodi-0.dtd"
   xmlns:inkscape="http://www.inkscape.org/namespaces/inkscape"
   width="6.9000001in"
   height="2.1199999in"
   viewBox="0 0 175.26 53.847994"
   version="1.1"
   id="svg8"
   inkscape:version="0.92.3 (2405546, 2018-03-11)"
   sodipodi:docname="news.svg">
  <defs
     id="defs2" />
  <sodipodi:namedview
     id="base"
     pagecolor="#ffffff"
     bordercolor="#666666"
     borderopacity="1.0"
     inkscape:pageopacity="0.0"
     inkscape:pageshadow="2"
     inkscape:zoom="1.4142136"
     inkscape:cx="456.42755"
     inkscape:cy="252.77572"
     inkscape:document-units="mm"
     inkscape:current-layer="layer1"
     showgrid="false"
     units="in"
     fit-margin-top="0"
     fit-margin-left="0"
     fit-margin-right="0"
     fit-margin-bottom="0"
     inkscape:showpageshadow="false"
     inkscape:window-width="1920"
     inkscape:window-height="986"
     inkscape:window-x="-11"
     inkscape:window-y="-11"
     inkscape:window-maximized="1" />
  <metadata
     id="metadata5">
    <rdf:RDF>
      <cc:Work
         rdf:about="">
        <dc:format>image/svg+xml</dc:format>
        <dc:type
           rdf:resource="http://purl.org/dc/dcmitype/StillImage" />
        <dc:title></dc:title>
      </cc:Work>
    </rdf:RDF>
  </metadata>
  <g
     inkscape:label="Layer 1"
     inkscape:groupmode="layer"
     id="layer1"
     transform="translate(-88.76738,-190.2352)">
    <g
       id="g904">
      <rect
         y="189.57883"
         x="88.76738"
         height="54.504368"
         width="59.266708"
         id="rect827"
         style="opacity:1;fill:#5e2590;fill-opacity:1;stroke:none;stroke-width:0.26458332;stroke-miterlimit:4;stroke-dasharray:none;stroke-opacity:1" />
      <rect
         style="opacity:1;fill:#37ab9c;fill-opacity:1;stroke:none;stroke-width:0.26458332;stroke-miterlimit:4;stroke-dasharray:none;stroke-opacity:1"
         id="rect829"
         width="59.266708"
         height="54.504368"
         x="207.03542"
         y="189.57883" />
      <rect
         y="189.57883"
         x="148.03407"
         height="54.504368"
         width="59.266708"
         id="rect831"
         style="opacity:1;fill:#00adef;fill-opacity:1;stroke:none;stroke-width:0.26458332;stroke-miterlimit:4;stroke-dasharray:none;stroke-opacity:1" />
      <g
         id="text835"
         style="font-style:normal;font-variant:normal;font-weight:normal;font-stretch:normal;font-size:12.69999981px;line-height:1.25;font-family:'Permanent Marker';-inkscape-font-specification:'Permanent Marker';letter-spacing:0px;word-spacing:0px;fill:#ffffff;fill-opacity:1;stroke:none;stroke-width:0.26458332"
         aria-label="Triple Threat Program">
        <path
           id="path842"
           style="font-size:12.69999981px;fill:#ffffff;fill-opacity:1;stroke-width:0.26458332"
           d="m 110.00845,214.00372 q -0.0124,-0.0992 -0.0496,-0.17363 -0.0248,-0.0868 -0.062,-0.18604 -0.062,-0.14883 -0.11162,-0.32246 -0.0496,-0.17363 -0.0496,-0.40928 0.0248,-0.12402 0.062,-0.17363 0.0372,-0.062 0.0744,-0.0992 l 0.0496,-0.22324 h 0.18603 q 0.0992,0.0124 0.19844,0.0124 0.11162,0 0.21084,0 0.47129,0 0.96738,-0.0372 0.4961,-0.0372 1.017,-0.0868 0.5705,-0.0744 1.22783,-0.11162 0.062,-0.13643 0.0744,-0.17363 0.0248,-0.0372 0.0496,-0.0868 l 0.13643,-0.0744 q 0.28525,-0.0124 0.39687,0.0744 0.11162,0.0744 0.17363,0.14883 0.32247,-0.0248 0.65733,-0.062 0.33486,-0.0496 0.69453,-0.0992 0.49609,-0.062 1.00459,-0.12403 0.5085,-0.062 0.99219,-0.062 0.21084,0 0.39687,0.0124 0.18604,0.0124 0.35967,0.0372 l 0.14883,0.11162 q 0.0496,0.0868 0.12402,0.16123 0.0744,0.0744 0.17364,0.14883 0.18603,0.14883 0.35966,0.37207 0.18604,0.22324 0.13643,0.65732 l -0.062,0.12403 q -0.0496,0.0496 -0.12403,0.0992 l -0.12402,0.16123 h -0.13643 q -0.12402,0 -0.18603,0.0248 -0.062,0.0124 -0.14883,0.0496 -0.0496,0.0248 -0.11162,0.0496 -0.062,0.0124 -0.13643,0.0372 -0.13642,-0.0124 -0.21084,-0.0124 -0.0744,0 -0.17363,0 -0.37207,0 -0.80615,0.0496 -0.43408,0.0496 -0.84336,0.11162 -0.29766,0.0372 -0.57051,0.0744 -0.27285,0.0248 -0.49609,0.0496 -0.12403,0.32246 -0.22324,0.57051 -0.0992,0.24804 -0.21084,0.49609 -0.11162,0.24805 -0.21084,0.5085 -0.0992,0.24804 -0.18604,0.5581 -0.14883,0.22324 -0.24805,0.43408 -0.0992,0.19844 -0.16123,0.45889 -0.18603,0.21084 -0.27285,0.45889 -0.0744,0.24804 -0.13642,0.42168 l -0.0496,0.18603 q -0.0868,0.0868 -0.11162,0.13643 -0.0124,0.0496 -0.062,0.11162 -0.0372,0.16123 -0.0992,0.31006 -0.0248,0.062 -0.0496,0.13642 -0.0248,0.062 -0.0124,0.0992 -0.0248,0.13643 -0.0744,0.21084 0,0.0744 -0.0124,0.14883 -0.0124,0.0744 -0.0248,0.14883 -0.0248,0.0868 -0.0372,0.16123 -0.0124,0.062 0.0124,0.12402 0.0372,0.0496 0.0744,0.0992 0.0372,0.0496 0.062,0.12403 0.0248,0.0248 0.062,0.0372 0.0372,0.0124 0.062,0.0372 0.0992,0.0868 0.18603,0.0992 l 0.12403,0.14883 q 0.0744,0.44648 -0.13643,0.69453 -0.22324,0.28525 -0.74414,0.28525 l -0.17363,-0.0124 q -0.0868,-0.0868 -0.0992,-0.11162 -0.11162,-0.0496 -0.18604,-0.0868 -0.0744,-0.0248 -0.13642,-0.11162 -0.0248,-0.0248 -0.062,-0.0248 -0.0372,-0.0124 -0.062,-0.0372 -0.12402,-0.0372 -0.19843,-0.0868 l -0.13643,-0.0744 q 0.0124,-0.12403 0.0124,-0.17363 -0.0992,-0.13643 -0.16123,-0.29766 -0.0496,-0.16123 -0.0868,-0.33486 -0.0372,-0.13643 -0.0744,-0.24805 -0.0248,-0.11162 -0.0868,-0.19844 -0.0248,-0.86816 0.16123,-1.45107 0.18603,-0.59532 0.40927,-1.15342 0.12403,-0.29766 0.23565,-0.60772 0.11162,-0.31005 0.19844,-0.63252 l 0.13642,-0.13642 q 0.0868,-0.0744 0.11162,-0.0868 0,-0.16123 0.062,-0.31006 0.062,-0.16123 0.13643,-0.32246 0.0496,-0.0992 0.0868,-0.19843 0.0496,-0.0992 0.062,-0.17364 -0.0868,0 -0.16123,0.0124 -0.062,0 -0.13643,0.0124 -0.16123,0.0372 -0.31006,0.0372 -0.11162,0 -0.16123,-0.0124 -0.0992,0.0496 -0.18603,0.062 -0.0868,0 -0.17364,0 h -0.14882 -0.14883 q -0.14883,0 -0.23565,0.0372 -0.17363,0 -0.22324,0 -0.0496,0 -0.11162,0 h -0.14883 -0.14883 q -0.0992,0 -0.22324,-0.0124 -0.12402,-0.0248 -0.26045,-0.0992 l -0.0868,-0.0992 q -0.0744,-0.13642 -0.13643,-0.14883 l -0.13643,-0.0372 z"
           inkscape:connector-curvature="0" />
        <path
           id="path844"
           style="font-size:12.69999981px;fill:#ffffff;fill-opacity:1;stroke-width:0.26458332"
           d="m 119.44664,219.7088 q -0.13643,0.49609 -0.24805,0.75654 -0.0992,0.24805 -0.31006,0.5209 -0.16123,-0.0248 -0.22324,0.0372 -0.062,0.062 -0.13643,0.11162 -0.11162,0.0248 -0.16123,0 -0.0496,-0.0248 -0.0868,-0.062 -0.0372,-0.0248 -0.0992,-0.062 -0.0496,-0.0248 -0.16123,-0.0248 -0.0248,-0.0992 -0.062,-0.18604 -0.0248,-0.0868 -0.16123,-0.062 0.0248,-0.0992 0.0124,-0.16123 -0.0124,-0.0744 -0.0372,-0.12402 -0.0124,-0.062 -0.0248,-0.11162 -0.0124,-0.062 0.0124,-0.14883 -0.062,0 -0.0992,-0.0868 -0.0372,-0.0868 -0.0868,-0.17363 0.0372,-0.22324 0.0744,-0.42168 0.0372,-0.19844 0.0868,-0.37207 0.062,-0.17363 0.0992,-0.34727 0.0372,-0.17363 -0.0372,-0.35966 0.0496,0.0372 0.0744,-0.0124 0.0248,-0.062 0.0372,-0.14882 0.0124,-0.0992 0.0124,-0.18604 0,-0.0992 -0.0124,-0.16123 0.12402,-0.32246 0.19844,-0.65732 0.0868,-0.34727 0.14882,-0.68213 0.0744,-0.33487 0.14883,-0.65733 0.0744,-0.32246 0.19844,-0.59531 0.13642,-0.0248 0.29766,0.0372 0.17363,0.0496 0.21084,0.13642 0.32246,-0.24804 0.5705,-0.59531 0.24805,-0.35967 0.5085,-0.69453 0.26045,-0.33486 0.57051,-0.59531 0.32246,-0.26045 0.80615,-0.31006 0.24805,0.18603 0.5457,0.38447 0.31006,0.18604 0.5085,0.4961 0.0992,0.0496 0.16123,0.11162 0.0744,0.0496 0.17363,0.11162 v 0.14883 q 0.14883,0.13642 0.23565,0.32246 0.0992,0.17363 0.17363,0.38447 0.0744,0.19844 0.14883,0.40928 0.0744,0.19843 0.17363,0.38447 -0.0248,0.062 -0.0248,0.11162 0,0.0372 0.0124,0.0868 0.0248,0.0496 0.0372,0.0992 0.0124,0.0496 0,0.13642 -0.0372,0.5457 -0.35966,0.88057 -0.31006,0.33486 -0.75655,0.5581 -0.44648,0.21084 -0.95498,0.35967 -0.50849,0.14883 -0.91777,0.32246 0,0.0496 0.0372,0.0496 0.0496,0 0.0372,0.062 0.29766,0.18604 0.47129,0.29766 0.17364,0.11162 0.32246,0.18603 0.16123,0.0744 0.33487,0.13643 0.18603,0.0496 0.50849,0.12402 0.32246,0.0744 0.4961,0.12403 0.18603,0.0372 0.33486,0.0744 0.14883,0.0248 0.29766,0.0496 0.16123,0.0124 0.44648,0.0372 0.11162,0.11162 0.18604,0.27285 0.0868,0.14883 0.11162,0.31006 0.0248,0.14883 0.0124,0.29765 -0.0124,0.13643 -0.0868,0.22325 0.0124,0.0372 0.0496,0.0372 0.0496,-0.0124 0.0992,0 -0.0744,0.0496 -0.12402,0.12403 -0.0496,0.0744 -0.0992,0.14882 -0.0496,0.0744 -0.11162,0.12403 -0.062,0.062 -0.17363,0.0744 -0.38448,0.14883 -0.96739,0.0124 -0.58291,-0.12402 -1.47588,-0.47128 -0.44648,-0.17364 -0.73173,-0.29766 -0.27286,-0.13643 -0.4837,-0.26045 -0.19843,-0.13643 -0.37207,-0.28525 -0.16123,-0.14883 -0.39687,-0.35967 z m 1.77353,-4.25401 q -0.13642,0.19844 -0.31006,0.35967 -0.16123,0.16123 -0.32246,0.33487 -0.14882,0.16123 -0.27285,0.37207 -0.12402,0.19843 -0.17363,0.47128 0.43408,-0.0496 0.90537,-0.23564 0.47129,-0.19844 0.89297,-0.37207 -0.0496,-0.38447 -0.27285,-0.62012 -0.21084,-0.23564 -0.44649,-0.31006 z"
           inkscape:connector-curvature="0" />
        <path
           id="path846"
           style="font-size:12.69999981px;fill:#ffffff;fill-opacity:1;stroke-width:0.26458332"
           d="m 126.95006,220.13048 q 0.062,0.37207 -0.0496,0.58291 -0.0992,0.21084 -0.29766,0.31006 -0.18604,0.11162 -0.43408,0.12402 -0.24805,0.0124 -0.47129,-0.0248 -0.12402,-0.17364 -0.22324,-0.43409 -0.0992,-0.26045 -0.18604,-0.5333 -0.0868,-0.28525 -0.16123,-0.5581 -0.062,-0.27285 -0.11162,-0.48369 0.062,-0.14883 0.0744,-0.33487 0.0248,-0.19844 0.0248,-0.39687 0.0124,-0.19844 0.0124,-0.39688 0.0124,-0.21084 0.0372,-0.39687 0.0868,-0.5209 0.24805,-0.99219 0.17363,-0.47129 0.27285,-0.97979 0.0248,-0.11162 -0.0248,-0.21083 -0.0372,-0.0992 -0.0124,-0.18604 0.0124,-0.0496 0.0744,-0.062 0.062,-0.0248 0.0744,-0.0868 0.0372,-0.13642 0.0124,-0.22324 -0.0124,-0.0868 0.0496,-0.21084 0.062,-0.0992 0.14883,-0.28525 0.0992,-0.19844 0.0744,-0.40928 0.11162,-0.0744 0.21084,-0.17363 0.0992,-0.0992 0.19844,-0.17364 0.11162,-0.0868 0.23564,-0.14883 0.13643,-0.062 0.32246,-0.062 0.0992,0.12403 0.12403,0.27285 0.0372,0.14883 0.062,0.29766 0.0372,0.14883 0.0992,0.28525 0.062,0.12403 0.21084,0.19844 0,0.0992 0,0.24805 0,0.14883 0.0124,0.29766 0.0124,0.13642 0.0496,0.26044 0.0496,0.11163 0.14883,0.14883 -0.22324,0.59532 -0.42168,1.17823 -0.18604,0.58291 -0.31006,1.17822 -0.12402,0.58291 -0.16123,1.17822 -0.0248,0.59531 0.0868,1.20303 z"
           inkscape:connector-curvature="0" />
        <path
           id="path848"
           style="font-size:12.69999981px;fill:#ffffff;fill-opacity:1;stroke-width:0.26458332"
           d="m 133.06441,213.30919 q 0.5209,0.062 0.93018,0.21084 0.40928,0.14883 0.69453,0.39687 0.19844,0.31006 0.37207,0.66973 0.18604,0.35967 0.27285,0.75654 0.0992,0.38448 0.0868,0.79375 0,0.40928 -0.17363,0.83096 -0.35967,0.44648 -0.88057,0.73174 -0.5085,0.27285 -1.10381,0.44648 -0.59531,0.17364 -1.24023,0.29766 -0.63252,0.12402 -1.24024,0.24805 0.0124,0.28525 0,0.60771 0,0.31006 -0.062,0.63252 -0.0496,0.31006 -0.16123,0.60772 -0.11162,0.29765 -0.29766,0.5457 -0.21084,0 -0.43408,0.0496 -0.22324,0.062 -0.39687,0.0992 -0.0868,-0.0496 -0.16123,-0.0992 -0.062,-0.0372 -0.18604,-0.0496 0.0248,-0.12403 -0.062,-0.24805 -0.0868,-0.13642 -0.17363,-0.27285 -0.0868,-0.13643 -0.12403,-0.26045 -0.0248,-0.12402 0.12403,-0.23564 -0.0868,-0.0868 -0.0868,-0.22325 0.0868,-0.14882 0.14883,-0.40927 0.0744,-0.26045 0.11162,-0.5085 0.0496,-0.26045 0.0248,-0.47129 -0.0248,-0.21084 -0.24804,-0.31006 0.0124,-0.0248 0.0496,-0.0248 0.0372,0 0.0744,-0.0124 -0.0992,-0.0744 -0.12402,-0.21084 -0.0124,-0.13643 -0.0868,-0.23565 0.0248,-0.062 0.0372,-0.11162 0.0124,-0.0496 0.0868,-0.0372 -0.0372,-0.22324 0,-0.42168 0.0496,-0.19843 0.13643,-0.37207 0.0868,-0.18603 0.21084,-0.35966 0.12402,-0.17364 0.23564,-0.34727 0.0868,-0.0124 0.0992,0.0248 0.0248,0.0372 0.0868,-0.0124 0.16123,-0.12402 0.22324,-0.26045 0.062,-0.13642 0.062,-0.31006 0.0868,-0.26044 0.21084,-0.52089 0.12403,-0.27286 0.27285,-0.4961 0.14883,-0.22324 0.32246,-0.39687 0.18604,-0.17364 0.38448,-0.26045 0.14883,-0.12403 0.37207,-0.22324 0.22324,-0.11163 0.48369,-0.16123 0.26045,-0.062 0.5209,-0.062 0.27285,-0.0124 0.49609,0.0496 0.062,0.0248 0.062,-0.0248 0.0124,-0.0496 0.0496,-0.0496 z m -0.50849,2.96416 q 0.31006,-0.13643 0.65732,-0.21084 0.35967,-0.0868 0.59531,-0.31006 -0.14882,-0.13643 -0.43408,-0.23564 -0.28525,-0.11162 -0.62012,-0.13643 -0.33486,-0.0248 -0.68212,0.062 -0.33487,0.0744 -0.58292,0.29766 -0.0744,0.22324 -0.12402,0.35967 -0.0496,0.12402 -0.13642,0.31005 0.0248,0.062 0.0744,0.0992 0.062,0.0248 0.0868,0.0868 0.28525,-0.14883 0.5705,-0.16123 0.29766,-0.0248 0.59532,-0.16123 z"
           inkscape:connector-curvature="0" />
        <path
           id="path850"
           style="font-size:12.69999981px;fill:#ffffff;fill-opacity:1;stroke-width:0.26458332"
           d="m 138.33541,220.86222 q -0.34727,0.11162 -0.75654,0.22324 -0.40928,0.11162 -0.81856,0.11162 -0.62012,0 -0.97978,-0.31006 -0.062,-0.13642 -0.11163,-0.18603 -0.0372,-0.0496 -0.0744,-0.0992 -0.0248,-0.062 -0.0372,-0.16123 -0.14882,-0.17364 -0.23564,-0.39688 -0.0868,-0.23564 -0.12402,-0.47129 -0.0248,-0.24804 -0.0124,-0.49609 0.0248,-0.24805 0.0868,-0.47129 0.0248,-0.0496 0.0248,-0.0992 0.0124,-0.0496 0.0248,-0.11162 0.0496,-0.19844 0.0992,-0.38447 0.062,-0.18604 0.16123,-0.32246 -0.0496,-0.11162 0,-0.24805 0.0496,-0.13643 0.11162,-0.24805 0.17363,-0.47129 0.28525,-0.79375 0.12403,-0.33486 0.24805,-0.65732 0.21084,-0.55811 0.39687,-1.10381 0.18604,-0.5457 0.33487,-1.17822 0.0992,-0.062 0.14883,-0.0868 0.0744,-0.0248 0.12402,-0.0372 0.22324,0.11162 0.5209,0.22325 0.29765,0.0992 0.49609,0.0992 0.0992,0.062 0.12403,0.0992 0.0248,0.0248 0.0496,0.0496 0.13643,0.16123 0.23565,0.33487 0.0992,0.16123 0.062,0.43408 -0.0744,0.11162 -0.11162,0.11162 -0.062,0.24805 -0.13643,0.42168 -0.062,0.17363 -0.13642,0.34726 -0.0868,0.18604 -0.16123,0.37207 -0.0744,0.18604 -0.12403,0.45889 -0.0496,0.062 -0.0744,0.11162 -0.0124,0.0496 -0.0372,0.11162 -0.0248,0.062 -0.062,0.13643 -0.0248,0.062 -0.0868,0.11162 -0.0372,0.32246 -0.12403,0.5209 -0.0744,0.19844 -0.16123,0.39687 -0.14883,0.35967 -0.27285,0.71934 -0.11162,0.35967 -0.13643,0.81855 0.062,-0.0248 0.11163,-0.0248 0.062,0 0.11162,0 0.11162,0 0.26045,0.0372 0.37207,-0.19844 0.80615,-0.23565 0.44648,-0.0372 0.88056,-0.0496 0.17364,0 0.34727,0 0.17363,0 0.32246,-0.0248 0.11162,0.062 0.13643,0.0744 0.0372,0 0.0992,0 0.0868,0 0.14882,0.0124 0.14883,0.13643 0.28526,0.19844 0.13642,0.062 0.28525,0.11162 0.13643,0.0496 0.26045,0.11162 0.13643,0.0496 0.26045,0.14883 l 0.0868,0.5333 q 0.0868,0.11162 0.0744,0.14883 0,0.0992 -0.0496,0.14883 l 0.0248,0.13643 q -0.18604,0.0372 -0.26045,0.0868 -0.062,0.0496 -0.12403,0.11162 -0.0992,0.0124 -0.14883,0.0124 -0.0372,0 -0.0744,0 -0.17363,0 -0.42168,0.062 -0.33486,-0.11162 -0.69453,-0.11162 -0.13643,0 -0.28525,0.0124 -0.14883,0.0124 -0.29766,0.0248 -0.14883,0.0248 -0.31006,0.0372 -0.14883,0.0124 -0.31006,0.0124 z"
           inkscape:connector-curvature="0" />
        <path
           id="path852"
           style="font-size:12.69999981px;fill:#ffffff;fill-opacity:1;stroke-width:0.26458332"
           d="m 148.75338,214.01612 q 0.0124,0.0868 0,0.13643 0,0.0372 -0.0124,0.0744 0,0.0372 0,0.0868 0,0.0372 0.0248,0.12402 -0.26045,0.42168 -0.60771,0.58291 -0.33487,0.14883 -0.73174,0.22324 -0.39688,0.062 -0.81856,0.13643 -0.40927,0.0744 -0.81855,0.32246 -0.16123,-0.062 -0.29766,0 -0.12402,0.062 -0.37207,0.0372 -0.0744,0.0744 -0.18603,0.11162 -0.11162,0.0248 -0.22325,0.062 0.0496,0.11162 0.0372,0.23565 0,0.11162 0.0372,0.18603 0.43408,0.0372 0.95498,-0.0124 0.5333,-0.0496 1.0418,-0.062 0.0124,0.062 -0.0124,0.0868 -0.0248,0.0124 -0.0124,0.062 0.0868,0.062 0.17363,0.16124 0.0868,0.0868 0.17364,0.17363 0.0868,0.0868 0.17363,0.14883 0.0992,0.0496 0.22324,0.0372 0.0496,0.0992 0.062,0.22325 0.0248,0.11162 -0.0248,0.23564 -0.19844,0.13643 -0.39688,0.28525 -0.19843,0.13643 -0.42168,0.24805 -0.21084,0.11162 -0.45888,0.18604 -0.23565,0.062 -0.5333,0.0496 -0.062,0 -0.0992,0 -0.0248,0 -0.0744,-0.0372 -0.0992,0.062 -0.28525,0.0372 -0.17363,-0.0248 -0.27285,0.0372 -0.13643,-0.062 -0.33487,-0.0496 -0.18603,0 -0.33486,-0.0496 -0.19844,0.26045 -0.35967,0.55811 -0.16123,0.29766 -0.28525,0.63252 0.42168,0.062 0.69453,0.0496 0.28525,-0.0124 0.5333,-0.0372 0.24805,-0.0372 0.5085,-0.062 0.26045,-0.0372 0.65732,-0.0248 0.24805,-0.13642 0.58291,-0.17363 0.34727,-0.0496 0.63252,-0.14883 0.0992,0.0372 0.17363,0.13643 0.0744,0.0868 0.13643,0.17363 0.0744,0.0744 0.14883,0.13643 0.0744,0.062 0.18603,0.0496 0.0496,0.0496 0.062,0.12402 0.0248,0.062 0.0372,0.12402 0.0124,0.062 0.0372,0.11163 0.0372,0.0372 0.11162,0.0248 -0.18603,0.40928 -0.43408,0.63252 -0.23565,0.21084 -0.5457,0.32246 -0.31006,0.11162 -0.69454,0.17363 -0.37207,0.062 -0.83095,0.14883 -0.11162,0.0248 -0.18604,-0.0124 -0.0744,-0.0248 -0.17363,-0.0248 -0.28525,0.062 -0.68213,0.11163 -0.39687,0.0496 -0.80615,0.0372 -0.40928,-0.0124 -0.78135,-0.11162 -0.37207,-0.0868 -0.60771,-0.32246 -0.0992,-0.0868 -0.13643,-0.19844 -0.0248,-0.12402 -0.16123,-0.18603 -0.0124,-0.16123 -0.0496,-0.35967 -0.0372,-0.19844 -0.0744,-0.40928 -0.0372,-0.22324 -0.062,-0.43408 -0.0124,-0.21084 0.0248,-0.38447 0.0372,-0.18604 0.14883,-0.33487 0.12402,-0.14882 0.0868,-0.32246 0.062,-0.0124 0.0744,-0.062 0.0124,-0.062 0.0992,-0.0496 0.0744,-0.22324 0.16123,-0.42168 0.0868,-0.19843 0.17363,-0.38447 0.0992,-0.18604 0.18603,-0.37207 0.0992,-0.19844 0.18604,-0.43408 -0.17363,-0.16123 -0.26045,-0.34727 -0.0744,-0.19844 -0.11162,-0.38447 -0.0372,-0.19844 -0.062,-0.39688 -0.0248,-0.21084 -0.0868,-0.42168 0.12402,-0.18603 0.29766,-0.29765 0.18603,-0.12402 0.39687,-0.19844 0.21084,-0.0744 0.45889,-0.12402 0.24805,-0.0496 0.5209,-0.11162 0.49609,-0.16123 0.88056,-0.24805 0.39688,-0.0868 0.76895,-0.13643 0.38447,-0.062 0.79375,-0.11162 0.40928,-0.0496 0.93017,-0.14883 0.11163,0.11163 0.21084,0.11163 0.0496,-0.11163 0.11163,-0.062 0.0744,0.0372 0.062,-0.0744 0.12402,0.21084 0.31006,0.35967 0.19843,0.13642 0.43408,0.23564 z"
           inkscape:connector-curvature="0" />
        <path
           id="path854"
           style="font-size:12.69999981px;fill:#ffffff;fill-opacity:1;stroke-width:0.26458332"
           d="m 153.44146,214.00372 q -0.0124,-0.0992 -0.0496,-0.17363 -0.0248,-0.0868 -0.062,-0.18604 -0.062,-0.14883 -0.11162,-0.32246 -0.0496,-0.17363 -0.0496,-0.40928 0.0248,-0.12402 0.062,-0.17363 0.0372,-0.062 0.0744,-0.0992 l 0.0496,-0.22324 h 0.18604 q 0.0992,0.0124 0.19844,0.0124 0.11162,0 0.21084,0 0.47129,0 0.96738,-0.0372 0.49609,-0.0372 1.01699,-0.0868 0.57051,-0.0744 1.22783,-0.11162 0.062,-0.13643 0.0744,-0.17363 0.0248,-0.0372 0.0496,-0.0868 l 0.13642,-0.0744 q 0.28526,-0.0124 0.39688,0.0744 0.11162,0.0744 0.17363,0.14883 0.32246,-0.0248 0.65733,-0.062 0.33486,-0.0496 0.69453,-0.0992 0.49609,-0.062 1.00459,-0.12403 0.50849,-0.062 0.99218,-0.062 0.21084,0 0.39688,0.0124 0.18603,0.0124 0.35967,0.0372 l 0.14883,0.11162 q 0.0496,0.0868 0.12402,0.16123 0.0744,0.0744 0.17363,0.14883 0.18604,0.14883 0.35967,0.37207 0.18603,0.22324 0.13643,0.65732 l -0.062,0.12403 q -0.0496,0.0496 -0.12402,0.0992 l -0.12402,0.16123 h -0.13643 q -0.12402,0 -0.18603,0.0248 -0.062,0.0124 -0.14883,0.0496 -0.0496,0.0248 -0.11162,0.0496 -0.062,0.0124 -0.13643,0.0372 -0.13643,-0.0124 -0.21084,-0.0124 -0.0744,0 -0.17363,0 -0.37207,0 -0.80615,0.0496 -0.43409,0.0496 -0.84336,0.11162 -0.29766,0.0372 -0.57051,0.0744 -0.27285,0.0248 -0.4961,0.0496 -0.12402,0.32246 -0.22324,0.57051 -0.0992,0.24804 -0.21084,0.49609 -0.11162,0.24805 -0.21084,0.5085 -0.0992,0.24804 -0.18603,0.5581 -0.14883,0.22324 -0.24805,0.43408 -0.0992,0.19844 -0.16123,0.45889 -0.18603,0.21084 -0.27285,0.45889 -0.0744,0.24804 -0.13643,0.42168 l -0.0496,0.18603 q -0.0868,0.0868 -0.11162,0.13643 -0.0124,0.0496 -0.062,0.11162 -0.0372,0.16123 -0.0992,0.31006 -0.0248,0.062 -0.0496,0.13642 -0.0248,0.062 -0.0124,0.0992 -0.0248,0.13643 -0.0744,0.21084 0,0.0744 -0.0124,0.14883 -0.0124,0.0744 -0.0248,0.14883 -0.0248,0.0868 -0.0372,0.16123 -0.0124,0.062 0.0124,0.12402 0.0372,0.0496 0.0744,0.0992 0.0372,0.0496 0.062,0.12403 0.0248,0.0248 0.062,0.0372 0.0372,0.0124 0.062,0.0372 0.0992,0.0868 0.18604,0.0992 l 0.12402,0.14883 q 0.0744,0.44648 -0.13642,0.69453 -0.22325,0.28525 -0.74414,0.28525 l -0.17364,-0.0124 q -0.0868,-0.0868 -0.0992,-0.11162 -0.11162,-0.0496 -0.18603,-0.0868 -0.0744,-0.0248 -0.13643,-0.11162 -0.0248,-0.0248 -0.062,-0.0248 -0.0372,-0.0124 -0.062,-0.0372 -0.12402,-0.0372 -0.19844,-0.0868 l -0.13642,-0.0744 q 0.0124,-0.12403 0.0124,-0.17363 -0.0992,-0.13643 -0.16123,-0.29766 -0.0496,-0.16123 -0.0868,-0.33486 -0.0372,-0.13643 -0.0744,-0.24805 -0.0248,-0.11162 -0.0868,-0.19844 -0.0248,-0.86816 0.16123,-1.45107 0.18604,-0.59532 0.40928,-1.15342 0.12402,-0.29766 0.23564,-0.60772 0.11163,-0.31005 0.19844,-0.63252 l 0.13643,-0.13642 q 0.0868,-0.0744 0.11162,-0.0868 0,-0.16123 0.062,-0.31006 0.062,-0.16123 0.13643,-0.32246 0.0496,-0.0992 0.0868,-0.19843 0.0496,-0.0992 0.062,-0.17364 -0.0868,0 -0.16123,0.0124 -0.062,0 -0.13642,0.0124 -0.16123,0.0372 -0.31006,0.0372 -0.11162,0 -0.16123,-0.0124 -0.0992,0.0496 -0.18604,0.062 -0.0868,0 -0.17363,0 h -0.14883 -0.14883 q -0.14882,0 -0.23564,0.0372 -0.17363,0 -0.22324,0 -0.0496,0 -0.11162,0 h -0.14883 -0.14883 q -0.0992,0 -0.22324,-0.0124 -0.12403,-0.0248 -0.26045,-0.0992 l -0.0868,-0.0992 q -0.0744,-0.13642 -0.13642,-0.14883 l -0.13643,-0.0372 z"
           inkscape:connector-curvature="0" />
        <path
           id="path856"
           style="font-size:12.69999981px;fill:#ffffff;fill-opacity:1;stroke-width:0.26458332"
           d="m 167.23287,219.79561 q 0.0248,0.32247 -0.0744,0.53331 -0.0992,0.21084 -0.27286,0.35966 -0.17363,0.14883 -0.39687,0.23565 -0.22324,0.0868 -0.43408,0.16123 -0.0992,-0.062 -0.19844,-0.12403 -0.0868,-0.0744 -0.21084,-0.11162 -0.16123,-0.29765 -0.31006,-0.52089 -0.14883,-0.23565 -0.13642,-0.53331 0,-0.0124 0.0124,-0.13642 0.0248,-0.12402 0.0496,-0.27285 0.0372,-0.14883 0.0496,-0.27285 0.0248,-0.13643 0.0248,-0.14883 -0.28525,0.0248 -0.59531,0.12402 -0.31006,0.0992 -0.60772,0.23565 -0.28525,0.13642 -0.5457,0.27285 -0.24805,0.13642 -0.40928,0.23564 0,0.0372 -0.0496,0.18604 -0.0496,0.13642 -0.12402,0.29765 -0.0744,0.14883 -0.16123,0.27285 -0.0868,0.12403 -0.17363,0.12403 0.0124,0.0372 0.0372,0.0744 0.0248,0.0372 0,0.0992 -0.17363,0.0496 -0.31005,0.12402 -0.13643,0.0868 -0.28526,0.13643 -0.14883,0.062 -0.32246,0.062 -0.17363,0 -0.40928,-0.12402 0,-0.0744 -0.062,-0.12403 -0.062,-0.062 -0.13642,-0.0992 -0.062,-0.0496 -0.11163,-0.0744 -0.0496,-0.0372 -0.0496,-0.062 -0.062,0.0124 -0.0496,-0.0868 0.0124,-0.0992 0.0992,-0.0496 -0.13642,-0.17363 -0.17363,-0.29765 -0.0248,-0.13643 -0.13642,-0.33486 0.0248,-0.0248 0.0496,-0.0868 0.0124,-0.062 0.0248,-0.11162 0.0124,-0.0496 0.0372,-0.0744 0.0248,-0.0248 0.062,0.0124 -0.0248,-0.11163 0,-0.18604 0.0248,-0.0744 0.0496,-0.13643 0.0248,-0.062 0.0372,-0.12402 0.0124,-0.062 -0.0372,-0.13642 0.19844,-0.27286 0.26045,-0.58291 0.062,-0.32247 0.0744,-0.58291 0.0868,-0.0868 0.14883,-0.24805 0.0744,-0.16123 0.11162,-0.32246 0.0372,-0.17364 0.0248,-0.32246 0,-0.16123 -0.0372,-0.26045 0.0124,-0.062 0.13642,-0.0372 0.0744,-0.40928 0.0992,-0.91777 0.0372,-0.5209 0.11162,-0.97979 0.0744,-0.47129 0.24805,-0.81855 0.17363,-0.35967 0.55811,-0.47129 0.0744,0.26045 0.18603,0.45888 0.12403,0.19844 0.26045,0.38448 0.14883,0.17363 0.28525,0.35967 0.14883,0.18603 0.27286,0.42168 -0.0124,0.23564 -0.0496,0.5457 -0.0372,0.31006 -0.0992,0.63252 -0.0496,0.32246 -0.11162,0.62011 -0.0496,0.29766 -0.0992,0.5085 0.0124,0.062 0.062,0.0744 0.062,0.0124 0.0248,0.11162 0.29766,-0.0744 0.62012,-0.13643 0.32246,-0.062 0.64492,-0.13643 0.32246,-0.0744 0.62012,-0.16123 0.31006,-0.0992 0.57051,-0.23564 0.062,-0.48369 0.16123,-0.96738 0.0992,-0.48369 0.0248,-0.99219 0.062,-0.0496 0.0992,-0.12402 0.0372,-0.0744 0.12403,-0.0992 -0.062,-0.23565 -0.0496,-0.4961 0.0124,-0.26045 0.0868,-0.49609 0.0868,-0.23564 0.23565,-0.39688 0.16123,-0.17363 0.38447,-0.22324 0.13643,0.19844 0.23564,0.43408 0.0992,0.22325 0.19844,0.45889 0.11162,0.22324 0.22324,0.43408 0.12403,0.19844 0.31006,0.34727 0.0372,0.35967 0.0496,0.74414 0.0248,0.38447 0.0372,0.78135 -0.0992,0.47129 -0.22324,0.91777 -0.11162,0.43408 -0.16123,0.93018 -0.0868,0.0992 -0.13643,0.22324 -0.0496,0.12402 -0.0992,0.26045 -0.0496,0.12402 -0.11162,0.24804 -0.062,0.11163 -0.14883,0.19844 0.0496,0.14883 0.0124,0.28526 -0.0248,0.12402 0.0744,0.31005 z"
           inkscape:connector-curvature="0" />
        <path
           id="path858"
           style="font-size:12.69999981px;fill:#ffffff;fill-opacity:1;stroke-width:0.26458332"
           d="m 170.27144,219.7088 q -0.13642,0.49609 -0.24804,0.75654 -0.0992,0.24805 -0.31006,0.5209 -0.16123,-0.0248 -0.22324,0.0372 -0.062,0.062 -0.13643,0.11162 -0.11162,0.0248 -0.16123,0 -0.0496,-0.0248 -0.0868,-0.062 -0.0372,-0.0248 -0.0992,-0.062 -0.0496,-0.0248 -0.16123,-0.0248 -0.0248,-0.0992 -0.062,-0.18604 -0.0248,-0.0868 -0.16123,-0.062 0.0248,-0.0992 0.0124,-0.16123 -0.0124,-0.0744 -0.0372,-0.12402 -0.0124,-0.062 -0.0248,-0.11162 -0.0124,-0.062 0.0124,-0.14883 -0.062,0 -0.0992,-0.0868 -0.0372,-0.0868 -0.0868,-0.17363 0.0372,-0.22324 0.0744,-0.42168 0.0372,-0.19844 0.0868,-0.37207 0.062,-0.17363 0.0992,-0.34727 0.0372,-0.17363 -0.0372,-0.35966 0.0496,0.0372 0.0744,-0.0124 0.0248,-0.062 0.0372,-0.14882 0.0124,-0.0992 0.0124,-0.18604 0,-0.0992 -0.0124,-0.16123 0.12403,-0.32246 0.19844,-0.65732 0.0868,-0.34727 0.14883,-0.68213 0.0744,-0.33487 0.14883,-0.65733 0.0744,-0.32246 0.19843,-0.59531 0.13643,-0.0248 0.29766,0.0372 0.17363,0.0496 0.21084,0.13642 0.32246,-0.24804 0.57051,-0.59531 0.24804,-0.35967 0.50849,-0.69453 0.26045,-0.33486 0.57051,-0.59531 0.32246,-0.26045 0.80615,-0.31006 0.24805,0.18603 0.54571,0.38447 0.31006,0.18604 0.50849,0.4961 0.0992,0.0496 0.16123,0.11162 0.0744,0.0496 0.17364,0.11162 v 0.14883 q 0.14882,0.13642 0.23564,0.32246 0.0992,0.17363 0.17363,0.38447 0.0744,0.19844 0.14883,0.40928 0.0744,0.19843 0.17363,0.38447 -0.0248,0.062 -0.0248,0.11162 0,0.0372 0.0124,0.0868 0.0248,0.0496 0.0372,0.0992 0.0124,0.0496 0,0.13642 -0.0372,0.5457 -0.35967,0.88057 -0.31006,0.33486 -0.75654,0.5581 -0.44649,0.21084 -0.95498,0.35967 -0.5085,0.14883 -0.91778,0.32246 0,0.0496 0.0372,0.0496 0.0496,0 0.0372,0.062 0.29765,0.18604 0.47129,0.29766 0.17363,0.11162 0.32246,0.18603 0.16123,0.0744 0.33486,0.13643 0.18604,0.0496 0.5085,0.12402 0.32246,0.0744 0.49609,0.12403 0.18604,0.0372 0.33486,0.0744 0.14883,0.0248 0.29766,0.0496 0.16123,0.0124 0.44649,0.0372 0.11162,0.11162 0.18603,0.27285 0.0868,0.14883 0.11162,0.31006 0.0248,0.14883 0.0124,0.29765 -0.0124,0.13643 -0.0868,0.22325 0.0124,0.0372 0.0496,0.0372 0.0496,-0.0124 0.0992,0 -0.0744,0.0496 -0.12403,0.12403 -0.0496,0.0744 -0.0992,0.14882 -0.0496,0.0744 -0.11162,0.12403 -0.062,0.062 -0.17363,0.0744 -0.38447,0.14883 -0.96738,0.0124 -0.58291,-0.12402 -1.47588,-0.47128 -0.44649,-0.17364 -0.73174,-0.29766 -0.27285,-0.13643 -0.48369,-0.26045 -0.19844,-0.13643 -0.37207,-0.28525 -0.16123,-0.14883 -0.39688,-0.35967 z m 1.77354,-4.25401 q -0.13643,0.19844 -0.31006,0.35967 -0.16123,0.16123 -0.32246,0.33487 -0.14883,0.16123 -0.27285,0.37207 -0.12403,0.19843 -0.17364,0.47128 0.43409,-0.0496 0.90538,-0.23564 0.47128,-0.19844 0.89296,-0.37207 -0.0496,-0.38447 -0.27285,-0.62012 -0.21084,-0.23564 -0.44648,-0.31006 z"
           inkscape:connector-curvature="0" />
        <path
           id="path860"
           style="font-size:12.69999981px;fill:#ffffff;fill-opacity:1;stroke-width:0.26458332"
           d="m 182.06607,214.01612 q 0.0124,0.0868 0,0.13643 0,0.0372 -0.0124,0.0744 0,0.0372 0,0.0868 0,0.0372 0.0248,0.12402 -0.26045,0.42168 -0.60771,0.58291 -0.33487,0.14883 -0.73174,0.22324 -0.39688,0.062 -0.81856,0.13643 -0.40927,0.0744 -0.81855,0.32246 -0.16123,-0.062 -0.29766,0 -0.12402,0.062 -0.37207,0.0372 -0.0744,0.0744 -0.18603,0.11162 -0.11162,0.0248 -0.22325,0.062 0.0496,0.11162 0.0372,0.23565 0,0.11162 0.0372,0.18603 0.43408,0.0372 0.95498,-0.0124 0.5333,-0.0496 1.0418,-0.062 0.0124,0.062 -0.0124,0.0868 -0.0248,0.0124 -0.0124,0.062 0.0868,0.062 0.17363,0.16124 0.0868,0.0868 0.17364,0.17363 0.0868,0.0868 0.17363,0.14883 0.0992,0.0496 0.22324,0.0372 0.0496,0.0992 0.062,0.22325 0.0248,0.11162 -0.0248,0.23564 -0.19844,0.13643 -0.39688,0.28525 -0.19843,0.13643 -0.42168,0.24805 -0.21084,0.11162 -0.45888,0.18604 -0.23565,0.062 -0.5333,0.0496 -0.062,0 -0.0992,0 -0.0248,0 -0.0744,-0.0372 -0.0992,0.062 -0.28525,0.0372 -0.17363,-0.0248 -0.27285,0.0372 -0.13643,-0.062 -0.33486,-0.0496 -0.18604,0 -0.33487,-0.0496 -0.19844,0.26045 -0.35967,0.55811 -0.16123,0.29766 -0.28525,0.63252 0.42168,0.062 0.69453,0.0496 0.28526,-0.0124 0.5333,-0.0372 0.24805,-0.0372 0.5085,-0.062 0.26045,-0.0372 0.65732,-0.0248 0.24805,-0.13642 0.58291,-0.17363 0.34727,-0.0496 0.63252,-0.14883 0.0992,0.0372 0.17364,0.13643 0.0744,0.0868 0.13642,0.17363 0.0744,0.0744 0.14883,0.13643 0.0744,0.062 0.18603,0.0496 0.0496,0.0496 0.062,0.12402 0.0248,0.062 0.0372,0.12402 0.0124,0.062 0.0372,0.11163 0.0372,0.0372 0.11162,0.0248 -0.18603,0.40928 -0.43408,0.63252 -0.23565,0.21084 -0.5457,0.32246 -0.31006,0.11162 -0.69454,0.17363 -0.37207,0.062 -0.83095,0.14883 -0.11162,0.0248 -0.18604,-0.0124 -0.0744,-0.0248 -0.17363,-0.0248 -0.28525,0.062 -0.68213,0.11163 -0.39687,0.0496 -0.80615,0.0372 -0.40928,-0.0124 -0.78135,-0.11162 -0.37207,-0.0868 -0.60771,-0.32246 -0.0992,-0.0868 -0.13643,-0.19844 -0.0248,-0.12402 -0.16123,-0.18603 -0.0124,-0.16123 -0.0496,-0.35967 -0.0372,-0.19844 -0.0744,-0.40928 -0.0372,-0.22324 -0.062,-0.43408 -0.0124,-0.21084 0.0248,-0.38447 0.0372,-0.18604 0.14883,-0.33487 0.12402,-0.14882 0.0868,-0.32246 0.062,-0.0124 0.0744,-0.062 0.0124,-0.062 0.0992,-0.0496 0.0744,-0.22324 0.16123,-0.42168 0.0868,-0.19843 0.17363,-0.38447 0.0992,-0.18604 0.18604,-0.37207 0.0992,-0.19844 0.18603,-0.43408 -0.17363,-0.16123 -0.26045,-0.34727 -0.0744,-0.19844 -0.11162,-0.38447 -0.0372,-0.19844 -0.062,-0.39688 -0.0248,-0.21084 -0.0868,-0.42168 0.12403,-0.18603 0.29766,-0.29765 0.18603,-0.12402 0.39687,-0.19844 0.21084,-0.0744 0.45889,-0.12402 0.24805,-0.0496 0.5209,-0.11162 0.49609,-0.16123 0.88056,-0.24805 0.39688,-0.0868 0.76895,-0.13643 0.38447,-0.062 0.79375,-0.11162 0.40928,-0.0496 0.93018,-0.14883 0.11162,0.11163 0.21084,0.11163 0.0496,-0.11163 0.11162,-0.062 0.0744,0.0372 0.062,-0.0744 0.12402,0.21084 0.31006,0.35967 0.19843,0.13642 0.43408,0.23564 z"
           inkscape:connector-curvature="0" />
        <path
           id="path862"
           style="font-size:12.69999981px;fill:#ffffff;fill-opacity:1;stroke-width:0.26458332"
           d="m 188.32926,219.95685 q -0.0744,0.21083 -0.22325,0.43408 -0.13642,0.21084 -0.33486,0.38447 -0.18603,0.16123 -0.42168,0.27285 -0.23564,0.11162 -0.49609,0.12402 -0.16123,-0.0372 -0.22324,-0.0868 -0.0496,-0.0372 -0.11163,-0.0744 -0.0372,-0.0248 -0.0744,-0.0372 -0.0248,-0.0248 -0.0496,-0.0372 l -0.14883,-0.062 0.0496,-0.16123 q 0.0248,-0.0992 -0.0124,-0.14883 -0.0372,-0.062 -0.14883,-0.16123 -0.0372,-0.0372 -0.0744,-0.0744 -0.0372,-0.0372 -0.062,-0.0744 l -0.21084,-0.23564 0.33486,-0.0868 q 0.31006,-0.0868 0.40928,-0.22324 0.11162,-0.13643 0.0868,-0.45889 -0.24804,-0.0496 -0.42168,-0.0124 -0.16123,0.0372 -0.33486,0.0868 -0.22324,0.062 -0.45889,0.11162 -0.22324,0.0372 -0.49609,0.0372 -0.0992,0 -0.18603,0 -0.0868,-0.0124 -0.18604,-0.0248 l -0.12402,-0.0248 q -0.0248,-0.13642 -0.0496,-0.14882 -0.0248,-0.0248 -0.0496,-0.0496 -0.062,-0.062 -0.13643,-0.16123 -0.062,-0.11162 -0.0248,-0.27286 -0.062,-0.11162 -0.0744,-0.22324 -0.0744,0.14883 -0.11162,0.31006 l -0.0496,0.12402 -0.12402,0.0248 q -0.0248,0.0124 -0.0372,0.062 -0.0124,0.0372 -0.0124,0.062 l -0.062,0.21084 q -0.0248,0.0248 -0.0496,0.0496 -0.0248,0.0124 -0.0496,0.0372 -0.0248,0.11162 -0.062,0.22324 -0.0372,0.11162 -0.0744,0.21084 -0.062,0.16123 -0.11162,0.32246 -0.0372,0.14883 -0.0248,0.29766 l -0.0496,0.13642 q -0.062,0.0744 -0.13643,0.12403 -0.0744,0.0372 -0.14883,0.0744 -0.0248,0.0248 -0.0744,0.0496 -0.0372,0.0124 -0.062,0.0248 l -0.0372,0.13642 -0.14883,0.0248 q -0.13642,0.0248 -0.19843,0.0372 -0.0496,0.0124 -0.12403,0.0124 l -0.12402,-0.0124 q -0.13643,-0.11162 -0.21084,-0.17363 -0.0744,-0.0744 -0.17363,-0.13643 -0.11162,-0.14882 -0.12403,-0.22324 -0.0124,-0.0744 -0.0248,-0.13642 -0.0248,-0.0744 -0.0248,-0.12403 -0.0124,-0.0496 -0.0372,-0.0744 l -0.16123,-0.14883 0.13642,-0.11162 0.0124,-0.21084 q 0.24805,-0.63252 0.5209,-1.21543 0.28526,-0.58291 0.58291,-1.19062 0.0992,-0.19844 0.18604,-0.39688 0.0992,-0.19844 0.19844,-0.39687 -0.0124,-0.0372 -0.0124,-0.0868 0,-0.0496 0.0248,-0.11162 0.13642,-0.21084 0.22324,-0.37207 0.0868,-0.17364 0.17363,-0.34727 0.0992,-0.21084 0.19844,-0.40928 0.11162,-0.19843 0.27285,-0.40927 l 0.19844,-0.0868 q 0.0372,-0.0124 0.0868,-0.0248 0.0496,-0.0248 0.11162,-0.0248 l 0.18603,0.0248 q 0.34727,-0.16123 0.60772,-0.44649 0.26045,-0.29765 0.5333,-0.70693 l 0.12402,-0.17363 0.16123,0.0992 q 0.062,0.0372 0.17363,0.0744 0.11163,0.0248 0.23565,0.062 0.22324,0.0496 0.42168,0.11162 0.19844,0.062 0.32246,0.18604 0.0744,0.19843 0.0868,0.29765 0.0124,0.0992 0.0372,0.19844 0.0372,0.21084 0.062,0.42168 0.0372,0.21084 0.0496,0.47129 0.062,0.21084 0.0992,0.42168 0.0496,0.19844 0.0868,0.40928 0.062,0.29765 0.12402,0.58291 0.062,0.27285 0.16123,0.52089 0.0992,0 0.12403,0.0124 0.062,-0.0248 0.12402,-0.0372 0.0744,-0.0124 0.16123,-0.0248 l 0.13643,-0.0124 0.0496,0.12403 q 0.0124,0.062 0.12402,0.12402 0.16123,0.0124 0.23564,0.0744 0.0744,0.0496 0.13643,0.11162 0.0496,0.0496 0.0992,0.0744 l 0.18603,0.0744 -0.0992,0.18604 q -0.12402,0.22324 -0.35966,0.43408 -0.22325,0.19844 -0.5085,0.33486 0.0124,0.0744 0.0124,0.14883 0.0124,0.062 0.0372,0.13643 0.0372,0.21084 0.062,0.43408 0.0248,0.22324 0,0.45889 z m -3.58428,-2.14561 q 0.37207,-0.0248 0.66973,-0.0496 0.31005,-0.0372 0.68213,-0.11162 -0.0868,-0.37207 -0.18604,-0.76895 -0.0992,-0.40927 -0.21084,-0.80615 l -0.0744,0.12403 q -0.24805,0.26044 -0.4837,0.58291 -0.22324,0.32246 -0.38447,0.60771 -0.0744,0.11162 -0.14883,0.22324 -0.0744,0.11162 -0.13642,0.22324 0.0744,-0.0124 0.13642,-0.0124 0.0744,0 0.13643,-0.0124 z"
           inkscape:connector-curvature="0" />
        <path
           id="path864"
           style="font-size:12.69999981px;fill:#ffffff;fill-opacity:1;stroke-width:0.26458332"
           d="m 195.60943,215.03311 q -0.31006,0 -0.66973,0.0496 -0.35966,0.0372 -0.70693,0.0868 -0.24805,0.0372 -0.48369,0.062 -0.22324,0.0248 -0.40928,0.0372 -0.0868,0.27285 -0.17363,0.48369 -0.0868,0.21084 -0.18604,0.40928 -0.0992,0.21084 -0.18603,0.43408 -0.0744,0.21084 -0.14883,0.45889 -0.12402,0.19843 -0.21084,0.37207 -0.0744,0.16123 -0.12402,0.37207 -0.14883,0.18603 -0.22324,0.39687 -0.0744,0.19844 -0.11163,0.34727 l -0.0496,0.14883 q -0.0744,0.0744 -0.0868,0.12402 -0.0124,0.0372 -0.062,0.0744 -0.0124,0.13643 -0.0868,0.27286 -0.0248,0.062 -0.0372,0.12402 -0.0124,0.0496 -0.0124,0.0744 0,0.12403 -0.062,0.16123 0.0124,0.062 0,0.13643 -0.0124,0.062 -0.0248,0.12402 -0.0372,0.14883 -0.0248,0.23565 0.0372,0.0496 0.062,0.0868 0.0372,0.0372 0.0496,0.0992 0.0744,0.0496 0.11162,0.062 0.0496,0.0372 0.14883,0.0868 l 0.11162,0.12402 q 0.062,0.35967 -0.11162,0.57051 -0.18603,0.23565 -0.63252,0.23565 h -0.14883 q -0.062,-0.062 -0.0744,-0.0992 -0.0992,-0.0372 -0.16123,-0.062 -0.062,-0.0248 -0.11162,-0.0992 -0.16123,-0.0744 -0.26045,-0.12403 l -0.11162,-0.062 q 0,-0.13642 0,-0.14883 -0.0868,-0.11162 -0.13643,-0.24804 -0.0372,-0.13643 -0.062,-0.27286 -0.0248,-0.11162 -0.062,-0.21083 -0.0248,-0.0992 -0.0744,-0.17364 -0.0248,-0.71933 0.13643,-1.21543 0.16123,-0.49609 0.33486,-0.95498 0.0992,-0.24804 0.19844,-0.49609 0.0992,-0.26045 0.17363,-0.5333 l 0.11162,-0.12403 q 0.0868,-0.19843 0.13643,-0.32246 0.062,-0.13642 0.12402,-0.27285 0.0372,-0.0868 0.062,-0.16123 0.0372,-0.0868 0.062,-0.14883 -0.0744,0 -0.13643,0.0124 -0.062,0 -0.12402,0.0124 -0.0744,0.0124 -0.13643,0.0248 -0.062,0 -0.12402,0 -0.0868,0 -0.12402,-0.0124 -0.13643,0.062 -0.29766,0.062 h -0.12402 q -0.0372,0 -0.0744,0 -0.0248,-0.0124 -0.0496,-0.0124 -0.12402,0 -0.19844,0.0372 -0.14882,0 -0.28525,0 h -0.12402 q -0.0248,0 -0.062,0.0124 -0.0372,0 -0.062,0 -0.0868,0 -0.18603,-0.0124 -0.0992,-0.0248 -0.21084,-0.0868 -0.14883,-0.19844 -0.19844,-0.21084 l -0.11162,-0.14883 q -0.0124,-0.0744 -0.0372,-0.13642 -0.0248,-0.0744 -0.0496,-0.16123 -0.0496,-0.12403 -0.0992,-0.26045 -0.0372,-0.14883 -0.0372,-0.34727 0.0124,-0.0992 0.0496,-0.14883 0.0372,-0.0496 0.062,-0.0868 l 0.0372,-0.18604 0.16123,0.0124 h 0.34726 q 0.39688,0 0.80615,-0.0248 0.40928,-0.0372 0.84336,-0.0744 0.24805,-0.0248 0.4961,-0.0496 0.26045,-0.0248 0.5333,-0.0496 0.0496,-0.11162 0.0992,-0.21084 l 0.12402,-0.062 q 0.22324,-0.0124 0.31006,0.062 0.0992,0.062 0.16123,0.12402 0.27285,-0.0248 0.5457,-0.0496 0.28526,-0.0372 0.57051,-0.0868 0.42168,-0.062 0.84336,-0.11162 0.43408,-0.0496 0.83096,-0.0496 0.17363,0 0.33486,0.0124 0.16123,0.0124 0.29766,0.0372 l 0.12402,0.0868 q 0.0372,0.0744 0.0992,0.13643 0.0744,0.062 0.14883,0.12402 0.14882,0.13642 0.29765,0.32246 0.14883,0.18603 0.11162,0.5457 -0.0992,0.14883 -0.14882,0.17364 l -0.11163,0.14882 -0.12402,-0.0124 q -0.0744,0 -0.13642,0.0248 -0.062,0.0124 -0.12403,0.0372 -0.0496,0.0248 -0.0992,0.0496 -0.0496,0.0124 -0.11162,0.0248 -0.11162,0 -0.18603,0 -0.062,-0.0124 -0.13643,-0.0124 z"
           inkscape:connector-curvature="0" />
        <path
           id="path866"
           style="font-size:12.69999981px;fill:#ffffff;fill-opacity:1;stroke-width:0.26458332"
           d="m 199.93785,217.50118 q 0.0124,-0.0496 0.0496,-0.0372 0.0496,0 0.0868,-0.0124 -0.0992,-0.0992 -0.12403,-0.26045 -0.0248,-0.17363 -0.12402,-0.28525 0.0248,-0.062 0.0372,-0.12402 0.0248,-0.062 0.11162,-0.0496 -0.0372,-0.27286 0.0124,-0.5085 0.0496,-0.23564 0.14883,-0.44648 0.11162,-0.21084 0.24805,-0.40928 0.14882,-0.21084 0.28525,-0.42168 0.11162,-0.0248 0.13642,0.0248 0.0248,0.0372 0.0868,-0.0248 0.19844,-0.13643 0.27285,-0.29766 0.0744,-0.17363 0.0744,-0.37207 0.11162,-0.32246 0.24804,-0.63252 0.14883,-0.32246 0.33487,-0.59531 0.18603,-0.27285 0.39687,-0.47129 0.21084,-0.21084 0.45889,-0.32246 0.17363,-0.14883 0.43408,-0.27285 0.27285,-0.12403 0.57051,-0.18604 0.31006,-0.0744 0.63252,-0.0744 0.32246,-0.0124 0.59531,0.062 0.062,0.0248 0.0744,-0.0248 0.0124,-0.062 0.062,-0.062 0.62011,0.0744 1.10381,0.24805 0.49609,0.17363 0.84335,0.48369 0.23565,0.37207 0.44649,0.80615 0.21084,0.42168 0.32246,0.89297 0.12402,0.45889 0.11162,0.95498 -0.0124,0.4961 -0.21084,0.99219 -0.43408,0.5457 -1.0542,0.88057 -0.62012,0.32246 -1.33945,0.5457 -0.70693,0.21084 -1.47588,0.34727 -0.75654,0.13642 -1.47588,0.29765 0.0124,0.33487 0,0.71934 -0.0124,0.37207 -0.0868,0.75654 -0.062,0.37207 -0.19843,0.73174 -0.12403,0.35967 -0.34727,0.66973 -0.24805,-0.0124 -0.5209,0.0496 -0.26045,0.062 -0.47129,0.12402 -0.0992,-0.062 -0.19843,-0.12402 -0.0868,-0.0496 -0.22325,-0.062 0.0372,-0.14882 -0.0744,-0.31005 -0.0992,-0.16123 -0.21084,-0.31006 -0.0992,-0.16123 -0.13643,-0.31006 -0.0248,-0.16123 0.14883,-0.28526 -0.0992,-0.0868 -0.0992,-0.27285 0.0496,0.0496 0.12403,0.0496 -0.0248,-0.22324 0.0496,-0.5333 0.0868,-0.31006 0.13642,-0.60771 0.062,-0.31006 0.0248,-0.55811 -0.0372,-0.26045 -0.29766,-0.37207 z m 3.22461,-2.90215 q -0.0496,0.13643 -0.0868,0.24805 -0.0248,0.0992 -0.062,0.18603 -0.0372,0.0868 -0.0868,0.17364 -0.0372,0.0868 -0.0868,0.19844 0.0248,0.0744 0.0992,0.11162 0.0744,0.0372 0.0992,0.11162 0.17363,-0.0868 0.34726,-0.12403 0.17364,-0.0496 0.34727,-0.0744 0.17363,-0.0248 0.34726,-0.062 0.17364,-0.0372 0.35967,-0.12403 0.18604,-0.0868 0.38447,-0.13642 0.21084,-0.062 0.40928,-0.12402 0.19844,-0.062 0.38447,-0.13643 0.18604,-0.0868 0.32247,-0.22324 -0.17364,-0.16123 -0.5209,-0.28526 -0.34727,-0.12402 -0.75655,-0.14882 -0.39687,-0.0372 -0.80615,0.0496 -0.39687,0.0868 -0.69453,0.35967 z"
           inkscape:connector-curvature="0" />
        <path
           id="path868"
           style="font-size:12.69999981px;fill:#ffffff;fill-opacity:1;stroke-width:0.26458332"
           d="m 209.51246,219.7088 q -0.13643,0.49609 -0.24805,0.75654 -0.0992,0.24805 -0.31006,0.5209 -0.16123,-0.0248 -0.22324,0.0372 -0.062,0.062 -0.13643,0.11162 -0.11162,0.0248 -0.16123,0 -0.0496,-0.0248 -0.0868,-0.062 -0.0372,-0.0248 -0.0992,-0.062 -0.0496,-0.0248 -0.16123,-0.0248 -0.0248,-0.0992 -0.062,-0.18604 -0.0248,-0.0868 -0.16123,-0.062 0.0248,-0.0992 0.0124,-0.16123 -0.0124,-0.0744 -0.0372,-0.12402 -0.0124,-0.062 -0.0248,-0.11162 -0.0124,-0.062 0.0124,-0.14883 -0.062,0 -0.0992,-0.0868 -0.0372,-0.0868 -0.0868,-0.17363 0.0372,-0.22324 0.0744,-0.42168 0.0372,-0.19844 0.0868,-0.37207 0.062,-0.17363 0.0992,-0.34727 0.0372,-0.17363 -0.0372,-0.35966 0.0496,0.0372 0.0744,-0.0124 0.0248,-0.062 0.0372,-0.14882 0.0124,-0.0992 0.0124,-0.18604 0,-0.0992 -0.0124,-0.16123 0.12402,-0.32246 0.19843,-0.65732 0.0868,-0.34727 0.14883,-0.68213 0.0744,-0.33487 0.14883,-0.65733 0.0744,-0.32246 0.19844,-0.59531 0.13642,-0.0248 0.29765,0.0372 0.17364,0.0496 0.21084,0.13642 0.32246,-0.24804 0.57051,-0.59531 0.24805,-0.35967 0.5085,-0.69453 0.26045,-0.33486 0.5705,-0.59531 0.32247,-0.26045 0.80616,-0.31006 0.24804,0.18603 0.5457,0.38447 0.31006,0.18604 0.5085,0.4961 0.0992,0.0496 0.16123,0.11162 0.0744,0.0496 0.17363,0.11162 v 0.14883 q 0.14883,0.13642 0.23564,0.32246 0.0992,0.17363 0.17364,0.38447 0.0744,0.19844 0.14882,0.40928 0.0744,0.19843 0.17364,0.38447 -0.0248,0.062 -0.0248,0.11162 0,0.0372 0.0124,0.0868 0.0248,0.0496 0.0372,0.0992 0.0124,0.0496 0,0.13642 -0.0372,0.5457 -0.35967,0.88057 -0.31005,0.33486 -0.75654,0.5581 -0.44648,0.21084 -0.95498,0.35967 -0.5085,0.14883 -0.91777,0.32246 0,0.0496 0.0372,0.0496 0.0496,0 0.0372,0.062 0.29766,0.18604 0.47129,0.29766 0.17363,0.11162 0.32246,0.18603 0.16123,0.0744 0.33486,0.13643 0.18604,0.0496 0.5085,0.12402 0.32246,0.0744 0.49609,0.12403 0.18604,0.0372 0.33487,0.0744 0.14883,0.0248 0.29765,0.0496 0.16123,0.0124 0.44649,0.0372 0.11162,0.11162 0.18603,0.27285 0.0868,0.14883 0.11162,0.31006 0.0248,0.14883 0.0124,0.29765 -0.0124,0.13643 -0.0868,0.22325 0.0124,0.0372 0.0496,0.0372 0.0496,-0.0124 0.0992,0 -0.0744,0.0496 -0.12402,0.12403 -0.0496,0.0744 -0.0992,0.14882 -0.0496,0.0744 -0.11162,0.12403 -0.062,0.062 -0.17364,0.0744 -0.38447,0.14883 -0.96738,0.0124 -0.58291,-0.12402 -1.47588,-0.47128 -0.44648,-0.17364 -0.73174,-0.29766 -0.27285,-0.13643 -0.48369,-0.26045 -0.19844,-0.13643 -0.37207,-0.28525 -0.16123,-0.14883 -0.39687,-0.35967 z m 1.77353,-4.25401 q -0.13642,0.19844 -0.31006,0.35967 -0.16123,0.16123 -0.32246,0.33487 -0.14883,0.16123 -0.27285,0.37207 -0.12402,0.19843 -0.17363,0.47128 0.43408,-0.0496 0.90537,-0.23564 0.47129,-0.19844 0.89297,-0.37207 -0.0496,-0.38447 -0.27285,-0.62012 -0.21084,-0.23564 -0.44649,-0.31006 z"
           inkscape:connector-curvature="0" />
        <path
           id="path870"
           style="font-size:12.69999981px;fill:#ffffff;fill-opacity:1;stroke-width:0.26458332"
           d="m 221.61715,217.27794 q -0.0124,0.14883 0.0248,0.28525 0.0372,0.13643 0.0868,0.27285 0.062,0.12403 0.11162,0.26045 0.0496,0.13643 0.0744,0.27286 0.0248,0.17363 0,0.38447 -0.0248,0.19844 -0.0868,0.39687 -0.062,0.18604 -0.16123,0.34727 -0.0992,0.14883 -0.23565,0.22324 -0.17363,0.22324 -0.42168,0.34727 -0.24804,0.12402 -0.45888,0.29765 -0.13643,0.0868 -0.31006,0.12403 -0.16123,0.0372 -0.33487,0.0744 -0.13642,0.0744 -0.32246,0.16123 -0.18603,0.0744 -0.38447,0.14883 -0.19844,0.062 -0.39687,0.0992 -0.19844,0.0248 -0.34727,0.0124 -0.37207,0.13643 -0.73174,0.17363 -0.34726,0.0496 -0.81855,-0.0496 -0.44649,0.062 -0.83096,-0.0372 -0.37207,-0.0992 -0.66973,-0.31006 -0.28525,-0.22324 -0.50849,-0.5209 -0.21084,-0.31006 -0.34727,-0.64492 -0.0992,-0.70694 0.0496,-1.27744 0.14883,-0.58291 0.42168,-1.06661 0.28525,-0.49609 0.64492,-0.90537 0.35967,-0.42168 0.69453,-0.81855 0.0744,0.0248 0.11163,0 0.0496,-0.0372 0.0868,-0.0868 0.0372,-0.062 0.0744,-0.11162 0.0496,-0.0496 0.11162,-0.062 0.0868,-0.18604 0.24804,-0.27285 0.17364,-0.0992 0.27286,-0.27285 0.11162,-0.0248 0.18603,-0.0744 0.0744,-0.0496 0.13643,-0.11162 0.0744,-0.062 0.14882,-0.11162 0.0744,-0.062 0.17364,-0.0868 v -0.13642 q 0.22324,-0.0992 0.32246,-0.22324 0.11162,-0.13643 0.26045,-0.32247 0.11162,-0.0124 0.17363,-0.0124 0.0744,0 0.21084,-0.0248 0.0992,-0.17364 0.17363,-0.26045 0.0868,-0.0868 0.24805,-0.18604 0.14883,0.0744 0.32246,0.0992 0.18604,0.0248 0.32246,0.16123 0.0124,0.12403 0.0744,0.19844 0.062,0.062 0.13642,0.12402 0.0744,0.0496 0.13643,0.11162 0.0744,0.062 0.0992,0.17364 0.0496,0.0124 0.062,-0.0124 0.0248,-0.0248 0.0744,-0.0124 0.0372,0.17364 0.0868,0.23565 0.0496,0.0496 0.0992,0.21084 -0.062,0.12402 -0.0992,0.26045 -0.0248,0.12402 -0.14883,0.18603 -0.0124,0.0868 0.0496,0.0992 0.062,0 0.0744,0.062 0.0124,0.11162 -0.0372,0.16123 0.29765,0.48369 0.5333,1.0294 0.23564,0.5333 0.5333,1.01699 z m -1.5503,1.17822 q 0.0496,-0.13642 0.12403,-0.22324 0.0868,-0.0868 0.0992,-0.26045 -0.062,-0.0992 -0.0744,-0.14883 -0.0124,-0.062 -0.0124,-0.18603 -0.27285,-0.38448 -0.47129,-0.81856 -0.19844,-0.44648 -0.44648,-0.83095 -0.0248,0.0496 -0.0868,0.0992 -0.062,0.0496 -0.13643,-0.0248 -0.0248,0.0992 -0.0868,0.14883 -0.062,0.0372 -0.13643,0.0372 -0.0744,-0.0124 -0.16123,-0.0372 -0.0744,-0.0372 -0.13642,-0.0868 -0.35967,0.28525 -0.71934,0.55811 -0.35967,0.27285 -0.64492,0.63252 -0.0496,0.0248 -0.062,0.0248 -0.0124,-0.0124 -0.0744,0.0124 -0.0992,0.23565 -0.24804,0.43408 -0.13643,0.18604 -0.27286,0.38448 -0.13642,0.19844 -0.23564,0.42168 -0.0992,0.22324 -0.11162,0.5209 0.21084,0.17363 0.49609,0.21084 0.28526,0.0372 0.58291,0.0124 0.31006,-0.0248 0.59532,-0.0744 0.29765,-0.062 0.5457,-0.062 0.5209,-0.12402 0.89297,-0.32246 0.37207,-0.21084 0.78134,-0.42168 z"
           inkscape:connector-curvature="0" />
        <path
           id="path872"
           style="font-size:12.69999981px;fill:#ffffff;fill-opacity:1;stroke-width:0.26458332"
           d="m 231.16695,218.76622 q -0.29766,0.5333 -0.78135,0.83096 -0.48369,0.28525 -1.0666,0.48369 -0.58291,0.18603 -1.22783,0.33486 -0.63252,0.14883 -1.22783,0.38447 -0.17364,0 -0.31006,0.0124 -0.12403,0.0124 -0.24805,0.0372 -0.11162,0.0124 -0.22324,0.0372 -0.11162,0.0124 -0.24805,0.0248 -0.0496,-0.0124 -0.062,0.0248 -0.0124,0.0248 -0.0372,0.0496 -0.21084,0.0372 -0.38447,0.0372 -0.16123,0 -0.27285,0 -0.14883,0 -0.31006,0.0372 -0.14883,0.0496 -0.27285,0.0372 -0.93018,-0.0496 -1.46348,-0.65732 -0.5209,-0.62012 -0.58291,-1.71153 0.0124,-0.062 -0.0248,-0.0744 -0.0248,-0.0124 -0.0496,-0.0372 0,-0.12402 0.0248,-0.21084 0.0372,-0.0868 0.0124,-0.22324 0.32247,-0.68213 0.73174,-1.26504 0.40928,-0.59531 0.97979,-1.0418 0.0868,-0.0744 0.14883,-0.14882 0.062,-0.0744 0.11162,-0.14883 0.062,-0.0744 0.13642,-0.12403 0.0744,-0.062 0.18604,-0.0868 0.26045,-0.29766 0.62012,-0.54571 0.35966,-0.24804 0.75654,-0.47128 0.39687,-0.23565 0.78135,-0.45889 0.39687,-0.23565 0.71933,-0.5209 0.13643,0.062 0.19844,0.0372 0.062,-0.0248 0.13643,0 0.0868,0.18603 0.23564,0.26045 0.16123,0.0744 0.31006,0.16123 0.16123,0.0744 0.29765,0.18603 0.13643,0.11162 0.21084,0.29766 -0.0744,0 -0.0744,0.062 0.0124,0.0496 0.0372,0.11162 0.0248,0.0496 0.0124,0.11162 0,0.0496 -0.0868,0.0496 0.0124,0.062 0.0744,0.0744 0.0744,0 0.0744,0.062 0,0.062 -0.0372,0.0992 -0.0248,0.0372 0,0.12402 -0.24804,0.16123 -0.5581,0.31006 -0.29766,0.14883 -0.63252,0.32246 -0.32246,0.16123 -0.68213,0.35967 -0.34726,0.18603 -0.68213,0.43408 -0.33486,0.24805 -0.68213,0.5581 -0.34726,0.29766 -0.66972,0.63252 -0.32246,0.33487 -0.60772,0.69454 -0.28525,0.34726 -0.48369,0.69453 0.0248,0.062 0.0496,0.0992 0.0372,0.0248 0.062,0.0868 0.39688,0.0248 0.73174,0 0.34727,-0.0372 0.69453,0.0372 0.0372,-0.0248 0.0496,-0.0744 0.0124,-0.0496 0.062,-0.0744 0.70694,-0.0744 1.31465,-0.22324 0.60772,-0.16123 1.24023,-0.33486 -0.0992,-0.0372 -0.18603,-0.062 -0.0744,-0.0372 -0.14883,-0.062 -0.062,-0.062 0,-0.0992 0.0744,-0.0496 0.12402,-0.0992 -0.17363,-0.0992 -0.28525,-0.24804 -0.0992,-0.14883 -0.12402,-0.39688 0.0744,-0.062 0.0744,-0.14883 0,-0.0868 -0.0744,-0.13642 -0.0496,-0.0124 -0.062,0 -0.0124,0.0124 -0.0248,0.0372 0,0.0248 -0.0124,0.0496 -0.0124,0.0124 -0.062,-0.0124 0.0124,-0.11162 0.0496,-0.18603 0.0496,-0.0744 0.0744,-0.17364 l 0.85576,-0.5705 q 0.13643,0.0992 0.33487,0.22324 0.19843,0.11162 0.40927,0.23564 0.22324,0.11162 0.44649,0.23565 0.23564,0.11162 0.43408,0.22324 0.17363,0.0744 0.31006,0.19844 0.13642,0.12402 0.26045,0.26045 0.12402,0.12402 0.24804,0.24804 0.13643,0.12403 0.31006,0.21084 -0.0248,0.16123 0.0124,0.26045 0.0372,0.0992 0.0248,0.24805 z"
           inkscape:connector-curvature="0" />
        <path
           id="path874"
           style="font-size:12.69999981px;fill:#ffffff;fill-opacity:1;stroke-width:0.26458332"
           d="m 232.65523,219.7088 q -0.13642,0.49609 -0.24804,0.75654 -0.0992,0.24805 -0.31006,0.5209 -0.16123,-0.0248 -0.22325,0.0372 -0.062,0.062 -0.13642,0.11162 -0.11162,0.0248 -0.16123,0 -0.0496,-0.0248 -0.0868,-0.062 -0.0372,-0.0248 -0.0992,-0.062 -0.0496,-0.0248 -0.16123,-0.0248 -0.0248,-0.0992 -0.062,-0.18604 -0.0248,-0.0868 -0.16123,-0.062 0.0248,-0.0992 0.0124,-0.16123 -0.0124,-0.0744 -0.0372,-0.12402 -0.0124,-0.062 -0.0248,-0.11162 -0.0124,-0.062 0.0124,-0.14883 -0.062,0 -0.0992,-0.0868 -0.0372,-0.0868 -0.0868,-0.17363 0.0372,-0.22324 0.0744,-0.42168 0.0372,-0.19844 0.0868,-0.37207 0.062,-0.17363 0.0992,-0.34727 0.0372,-0.17363 -0.0372,-0.35966 0.0496,0.0372 0.0744,-0.0124 0.0248,-0.062 0.0372,-0.14882 0.0124,-0.0992 0.0124,-0.18604 0,-0.0992 -0.0124,-0.16123 0.12403,-0.32246 0.19844,-0.65732 0.0868,-0.34727 0.14883,-0.68213 0.0744,-0.33487 0.14883,-0.65733 0.0744,-0.32246 0.19843,-0.59531 0.13643,-0.0248 0.29766,0.0372 0.17363,0.0496 0.21084,0.13642 0.32246,-0.24804 0.57051,-0.59531 0.24804,-0.35967 0.50849,-0.69453 0.26045,-0.33486 0.57051,-0.59531 0.32246,-0.26045 0.80615,-0.31006 0.24805,0.18603 0.54571,0.38447 0.31005,0.18604 0.50849,0.4961 0.0992,0.0496 0.16123,0.11162 0.0744,0.0496 0.17364,0.11162 v 0.14883 q 0.14882,0.13642 0.23564,0.32246 0.0992,0.17363 0.17363,0.38447 0.0744,0.19844 0.14883,0.40928 0.0744,0.19843 0.17363,0.38447 -0.0248,0.062 -0.0248,0.11162 0,0.0372 0.0124,0.0868 0.0248,0.0496 0.0372,0.0992 0.0124,0.0496 0,0.13642 -0.0372,0.5457 -0.35967,0.88057 -0.31006,0.33486 -0.75654,0.5581 -0.44649,0.21084 -0.95498,0.35967 -0.5085,0.14883 -0.91778,0.32246 0,0.0496 0.0372,0.0496 0.0496,0 0.0372,0.062 0.29765,0.18604 0.47129,0.29766 0.17363,0.11162 0.32246,0.18603 0.16123,0.0744 0.33486,0.13643 0.18604,0.0496 0.5085,0.12402 0.32246,0.0744 0.49609,0.12403 0.18604,0.0372 0.33486,0.0744 0.14883,0.0248 0.29766,0.0496 0.16123,0.0124 0.44648,0.0372 0.11163,0.11162 0.18604,0.27285 0.0868,0.14883 0.11162,0.31006 0.0248,0.14883 0.0124,0.29765 -0.0124,0.13643 -0.0868,0.22325 0.0124,0.0372 0.0496,0.0372 0.0496,-0.0124 0.0992,0 -0.0744,0.0496 -0.12402,0.12403 -0.0496,0.0744 -0.0992,0.14882 -0.0496,0.0744 -0.11162,0.12403 -0.062,0.062 -0.17363,0.0744 -0.38447,0.14883 -0.96738,0.0124 -0.58291,-0.12402 -1.47588,-0.47128 -0.44649,-0.17364 -0.73174,-0.29766 -0.27285,-0.13643 -0.48369,-0.26045 -0.19844,-0.13643 -0.37207,-0.28525 -0.16123,-0.14883 -0.39688,-0.35967 z m 1.77354,-4.25401 q -0.13643,0.19844 -0.31006,0.35967 -0.16123,0.16123 -0.32246,0.33487 -0.14883,0.16123 -0.27285,0.37207 -0.12403,0.19843 -0.17364,0.47128 0.43409,-0.0496 0.90537,-0.23564 0.47129,-0.19844 0.89297,-0.37207 -0.0496,-0.38447 -0.27285,-0.62012 -0.21084,-0.23564 -0.44648,-0.31006 z"
           inkscape:connector-curvature="0" />
        <path
           id="path876"
           style="font-size:12.69999981px;fill:#ffffff;fill-opacity:1;stroke-width:0.26458332"
           d="m 244.09019,219.95685 q -0.0744,0.21083 -0.22324,0.43408 -0.13643,0.21084 -0.33487,0.38447 -0.18603,0.16123 -0.42168,0.27285 -0.23564,0.11162 -0.49609,0.12402 -0.16123,-0.0372 -0.22324,-0.0868 -0.0496,-0.0372 -0.11162,-0.0744 -0.0372,-0.0248 -0.0744,-0.0372 -0.0248,-0.0248 -0.0496,-0.0372 l -0.14882,-0.062 0.0496,-0.16123 q 0.0248,-0.0992 -0.0124,-0.14883 -0.0372,-0.062 -0.14882,-0.16123 -0.0372,-0.0372 -0.0744,-0.0744 -0.0372,-0.0372 -0.062,-0.0744 l -0.21084,-0.23564 0.33486,-0.0868 q 0.31006,-0.0868 0.40928,-0.22324 0.11162,-0.13643 0.0868,-0.45889 -0.24805,-0.0496 -0.42168,-0.0124 -0.16123,0.0372 -0.33487,0.0868 -0.22324,0.062 -0.45888,0.11162 -0.22325,0.0372 -0.4961,0.0372 -0.0992,0 -0.18603,0 -0.0868,-0.0124 -0.18604,-0.0248 l -0.12402,-0.0248 q -0.0248,-0.13642 -0.0496,-0.14882 -0.0248,-0.0248 -0.0496,-0.0496 -0.062,-0.062 -0.13643,-0.16123 -0.062,-0.11162 -0.0248,-0.27286 -0.062,-0.11162 -0.0744,-0.22324 -0.0744,0.14883 -0.11162,0.31006 l -0.0496,0.12402 -0.12403,0.0248 q -0.0248,0.0124 -0.0372,0.062 -0.0124,0.0372 -0.0124,0.062 l -0.062,0.21084 q -0.0248,0.0248 -0.0496,0.0496 -0.0248,0.0124 -0.0496,0.0372 -0.0248,0.11162 -0.062,0.22324 -0.0372,0.11162 -0.0744,0.21084 -0.062,0.16123 -0.11162,0.32246 -0.0372,0.14883 -0.0248,0.29766 l -0.0496,0.13642 q -0.062,0.0744 -0.13642,0.12403 -0.0744,0.0372 -0.14883,0.0744 -0.0248,0.0248 -0.0744,0.0496 -0.0372,0.0124 -0.062,0.0248 l -0.0372,0.13642 -0.14882,0.0248 q -0.13643,0.0248 -0.19844,0.0372 -0.0496,0.0124 -0.12402,0.0124 l -0.12403,-0.0124 q -0.13642,-0.11162 -0.21084,-0.17363 -0.0744,-0.0744 -0.17363,-0.13643 -0.11162,-0.14882 -0.12402,-0.22324 -0.0124,-0.0744 -0.0248,-0.13642 -0.0248,-0.0744 -0.0248,-0.12403 -0.0124,-0.0496 -0.0372,-0.0744 l -0.16123,-0.14883 0.13643,-0.11162 0.0124,-0.21084 q 0.24804,-0.63252 0.5209,-1.21543 0.28525,-0.58291 0.58291,-1.19062 0.0992,-0.19844 0.18603,-0.39688 0.0992,-0.19844 0.19844,-0.39687 -0.0124,-0.0372 -0.0124,-0.0868 0,-0.0496 0.0248,-0.11162 0.13643,-0.21084 0.22324,-0.37207 0.0868,-0.17364 0.17364,-0.34727 0.0992,-0.21084 0.19843,-0.40928 0.11162,-0.19843 0.27286,-0.40927 l 0.19843,-0.0868 q 0.0372,-0.0124 0.0868,-0.0248 0.0496,-0.0248 0.11162,-0.0248 l 0.18604,0.0248 q 0.34726,-0.16123 0.60771,-0.44649 0.26045,-0.29765 0.5333,-0.70693 l 0.12402,-0.17363 0.16123,0.0992 q 0.062,0.0372 0.17364,0.0744 0.11162,0.0248 0.23564,0.062 0.22324,0.0496 0.42168,0.11162 0.19844,0.062 0.32246,0.18604 0.0744,0.19843 0.0868,0.29765 0.0124,0.0992 0.0372,0.19844 0.0372,0.21084 0.062,0.42168 0.0372,0.21084 0.0496,0.47129 0.062,0.21084 0.0992,0.42168 0.0496,0.19844 0.0868,0.40928 0.062,0.29765 0.12403,0.58291 0.062,0.27285 0.16123,0.52089 0.0992,0 0.12402,0.0124 0.062,-0.0248 0.12402,-0.0372 0.0744,-0.0124 0.16123,-0.0248 l 0.13643,-0.0124 0.0496,0.12403 q 0.0124,0.062 0.12402,0.12402 0.16123,0.0124 0.23565,0.0744 0.0744,0.0496 0.13642,0.11162 0.0496,0.0496 0.0992,0.0744 l 0.18604,0.0744 -0.0992,0.18604 q -0.12403,0.22324 -0.35967,0.43408 -0.22324,0.19844 -0.5085,0.33486 0.0124,0.0744 0.0124,0.14883 0.0124,0.062 0.0372,0.13643 0.0372,0.21084 0.062,0.43408 0.0248,0.22324 0,0.45889 z m -3.58428,-2.14561 q 0.37207,-0.0248 0.66973,-0.0496 0.31006,-0.0372 0.68213,-0.11162 -0.0868,-0.37207 -0.18604,-0.76895 -0.0992,-0.40927 -0.21084,-0.80615 l -0.0744,0.12403 q -0.24805,0.26044 -0.48369,0.58291 -0.22324,0.32246 -0.38447,0.60771 -0.0744,0.11162 -0.14883,0.22324 -0.0744,0.11162 -0.13643,0.22324 0.0744,-0.0124 0.13643,-0.0124 0.0744,0 0.13642,-0.0124 z"
           inkscape:connector-curvature="0" />
        <path
           id="path878"
           style="font-size:12.69999981px;fill:#ffffff;fill-opacity:1;stroke-width:0.26458332"
           d="m 253.50357,220.7754 q -0.12402,0.062 -0.23564,0.11162 -0.0992,0.0496 -0.23565,0.0496 -0.48369,-0.35967 -0.50849,-1.25264 -0.0124,-0.89297 0.38447,-2.26963 0.062,-0.0372 0.062,-0.14882 l -0.11162,-0.12403 q -0.0496,0 -0.0992,0.0124 -0.0372,0.0124 -0.062,0.0868 -0.32246,0.23565 -0.70693,0.4961 -0.38448,0.24804 -0.80616,0.47128 -0.40927,0.21084 -0.84336,0.34727 -0.42168,0.13643 -0.83095,0.13643 -1.0418,0 -1.5627,-1.0542 l -0.0992,-0.18604 -0.0992,0.16123 q -0.0372,0.0496 -0.11162,0.21084 -0.0744,0.14883 -0.14882,0.34727 -0.0744,0.19844 -0.13643,0.40927 -0.0496,0.19844 -0.0372,0.34727 -0.11162,0.11162 -0.23564,0.26045 -0.12403,0.14883 -0.18604,0.33486 -0.0248,0.0992 0.0248,0.18604 -0.0248,0.11162 -0.11162,0.17363 -0.0496,0.062 -0.11162,0.12402 -0.0496,0.0496 -0.0868,0.11163 -0.0248,0.062 -0.0372,0.12402 0,0.062 -0.0124,0.12402 0,0.0868 -0.0248,0.16123 -0.21083,0.43408 -0.33486,0.55811 -0.12402,0.13642 -0.33486,0.13642 -0.0992,0 -0.32246,-0.0372 -0.16123,-0.17364 -0.29766,-0.47129 -0.12402,-0.31006 -0.19844,-0.65733 -0.062,-0.34726 -0.062,-0.69453 0.0124,-0.35967 0.12403,-0.62011 0,-0.0124 0.0992,-0.24805 0.0992,-0.23565 0.24805,-0.60772 0.16123,-0.37207 0.35967,-0.81855 0.19844,-0.45889 0.39687,-0.88057 0.19844,-0.43408 0.37207,-0.79375 0.18604,-0.35967 0.31006,-0.5457 0.0992,-0.14883 0.17364,-0.27285 0.0868,-0.13643 0.16123,-0.26045 0.22324,-0.38447 0.42168,-0.63252 0.21084,-0.26045 0.60771,-0.40928 0.27285,0.11162 0.39688,0.26045 l 0.0248,0.13643 q 0.0496,0.12402 0.14883,0.12402 0.13642,0.0372 0.22324,0.0744 0.0992,0.0248 0.21084,0.0496 0.0868,0.0992 0.16123,0.23565 0.0992,0.14883 0.18604,0.29765 0.0992,0.13643 0.14882,0.28526 0.062,0.13642 0.062,0.28525 0.0124,0.14883 -0.0496,0.31006 l 0.0124,0.12402 q 0.062,0.11163 0.0248,0.31006 -0.0124,0.0868 -0.0124,0.18604 0,0.0868 0.0248,0.19844 0.22324,0.17363 0.39687,0.17363 0.19844,0 0.35967,-0.0868 0.17363,-0.0992 0.32246,-0.19844 0.0992,-0.0744 0.19844,-0.12402 0.0992,-0.062 0.19843,-0.0744 0.22325,-0.21084 0.39688,-0.37207 0.18603,-0.16123 0.38447,-0.32246 0.37207,-0.29766 0.71934,-0.64493 0.34726,-0.34726 0.5581,-0.86816 0.12403,-0.0744 0.26045,-0.0744 0.13643,0 0.28526,0.062 0.14883,0.062 0.28525,0.12402 0.0372,0.0248 0.062,0.0372 0.0372,0.0124 0.062,0.0248 0,0.12403 0.0992,0.21084 0.0496,0.0372 0.062,0.0496 0.0124,0.0124 0.0372,0.0248 0.18604,0.0992 0.23565,0.19843 0.0868,0.28526 0.31005,0.43409 -0.0248,0.12402 0,0.23564 0.0372,0.0992 0.0868,0.21084 0.0124,0.0372 0.0248,0.0744 0.0124,0.0372 0.0372,0.0868 l -0.23564,-0.0248 0.0372,0.23564 q 0.0248,0.17363 -0.0372,0.38447 -0.0496,0.21084 -0.12402,0.33487 0.0124,0.32246 0.0124,0.50849 0.0124,0.17364 -0.0124,0.33487 -0.0248,0.14882 -0.0744,0.28525 -0.0372,0.13643 -0.11162,0.29766 0.0496,0.79375 -0.18604,1.45107 -0.22324,0.64492 -0.47128,1.21543 -0.0248,0.062 -0.062,0.12402 -0.0248,0.062 -0.0496,0.12403 -0.11162,0.0372 -0.19843,0.0868 -0.0868,0.0372 -0.18604,0.0868 z"
           inkscape:connector-curvature="0" />
      </g>
    </g>
  </g>
</svg>
