<?xml version="1.0" encoding="UTF-8" standalone="no"?>
<!-- Created with Inkscape (http://www.inkscape.org/) -->

<svg
   xmlns:dc="http://purl.org/dc/elements/1.1/"
   xmlns:cc="http://creativecommons.org/ns#"
   xmlns:rdf="http://www.w3.org/1999/02/22-rdf-syntax-ns#"
   xmlns:svg="http://www.w3.org/2000/svg"
   xmlns="http://www.w3.org/2000/svg"
   xmlns:sodipodi="http://sodipodi.sourceforge.net/DTD/sodipodi-0.dtd"
   xmlns:inkscape="http://www.inkscape.org/namespaces/inkscape"
   width="74.512627mm"
   height="47.458416mm"
   viewBox="0 0 74.512627 47.458416"
   version="1.1"
   id="svg700"
   inkscape:version="0.92.3 (2405546, 2018-03-11)"
   sodipodi:docname="Logo.svg">
  <defs
     id="defs694" />
  <sodipodi:namedview
     id="base"
     pagecolor="#ffffff"
     bordercolor="#666666"
     borderopacity="1.0"
     inkscape:pageopacity="0.0"
     inkscape:pageshadow="2"
     inkscape:zoom="1"
     inkscape:cx="93.239833"
     inkscape:cy="80.113758"
     inkscape:document-units="mm"
     inkscape:current-layer="layer1"
     showgrid="false"
     fit-margin-top="0"
     fit-margin-left="0"
     fit-margin-right="0"
     fit-margin-bottom="0"
     inkscape:showpageshadow="false"
     inkscape:window-width="1920"
     inkscape:window-height="986"
     inkscape:window-x="-11"
     inkscape:window-y="-11"
     inkscape:window-maximized="1" />
  <metadata
     id="metadata697">
    <rdf:RDF>
      <cc:Work
         rdf:about="">
        <dc:format>image/svg+xml</dc:format>
        <dc:type
           rdf:resource="http://purl.org/dc/dcmitype/StillImage" />
        <dc:title></dc:title>
      </cc:Work>
    </rdf:RDF>
  </metadata>
  <g
     inkscape:label="Layer 1"
     inkscape:groupmode="layer"
     id="layer1"
     transform="translate(-81.163627,-69.655014)">
    <g
       transform="matrix(0.35277777,0,0,-0.35277777,49.866136,260.18429)"
       id="g692">
      <g
         transform="translate(91.3262,414.667)"
         id="g44">
        <path
           inkscape:connector-curvature="0"
           id="path46"
           style="fill:#231f20;fill-opacity:1;fill-rule:nonzero;stroke:none"
           d="m 0,0 v -3.047 h 1.187 c 0.854,0 1.425,0.057 1.713,0.169 0.288,0.112 0.514,0.288 0.678,0.527 0.163,0.24 0.245,0.518 0.245,0.835 0,0.391 -0.115,0.713 -0.344,0.967 C 3.25,-0.295 2.959,-0.137 2.607,-0.073 2.349,-0.024 1.829,0 1.047,0 Z M -2.168,-8.921 V 1.816 H 1.311 C 2.629,1.816 3.489,1.763 3.889,1.655 4.504,1.494 5.02,1.144 5.435,0.604 5.85,0.064 6.057,-0.632 6.057,-1.486 6.057,-2.146 5.937,-2.7 5.698,-3.149 5.459,-3.599 5.155,-3.951 4.787,-4.208 4.417,-4.464 4.043,-4.634 3.662,-4.717 3.145,-4.819 2.395,-4.87 1.414,-4.87 H 0 v -4.051 z" />
      </g>
      <g
         transform="translate(99.1631,405.7461)"
         id="g48">
        <path
           inkscape:connector-curvature="0"
           id="path50"
           style="fill:#231f20;fill-opacity:1;fill-rule:nonzero;stroke:none"
           d="M 0,0 V 10.737 H 7.961 V 8.921 H 2.168 V 6.541 H 7.559 V 4.731 H 2.168 V 1.81 H 8.167 V 0 Z" />
      </g>
      <g
         transform="translate(111.3433,411.9424)"
         id="g52">
        <path
           inkscape:connector-curvature="0"
           id="path54"
           style="fill:#231f20;fill-opacity:1;fill-rule:nonzero;stroke:none"
           d="M 0,0 H 1.604 C 2.644,0 3.293,0.044 3.552,0.132 3.811,0.22 4.014,0.371 4.16,0.586 4.307,0.801 4.38,1.069 4.38,1.392 4.38,1.753 4.283,2.045 4.091,2.267 3.897,2.489 3.625,2.63 3.274,2.688 3.098,2.713 2.571,2.725 1.692,2.725 H 0 Z M -2.168,-6.196 V 4.541 H 2.395 C 3.542,4.541 4.376,4.444 4.896,4.252 5.416,4.059 5.833,3.716 6.145,3.223 6.458,2.729 6.614,2.166 6.614,1.531 6.614,0.726 6.377,0.06 5.903,-0.465 5.43,-0.99 4.722,-1.32 3.779,-1.457 4.248,-1.73 4.635,-2.031 4.94,-2.358 5.245,-2.686 5.657,-3.267 6.174,-4.102 L 7.485,-6.196 H 4.893 l -1.568,2.337 c -0.556,0.835 -0.937,1.36 -1.142,1.578 -0.205,0.217 -0.423,0.366 -0.652,0.446 -0.23,0.081 -0.594,0.121 -1.092,0.121 H 0 v -4.482 z" />
      </g>
      <g
         transform="translate(120.0151,405.7461)"
         id="g56">
        <path
           inkscape:connector-curvature="0"
           id="path58"
           style="fill:#231f20;fill-opacity:1;fill-rule:nonzero;stroke:none"
           d="M 0,0 V 10.737 H 7.361 V 8.921 H 2.168 V 6.38 H 6.65 V 4.563 H 2.168 V 0 Z" />
      </g>
      <g
         transform="translate(130.9575,411.1221)"
         id="g60">
        <path
           inkscape:connector-curvature="0"
           id="path62"
           style="fill:#231f20;fill-opacity:1;fill-rule:nonzero;stroke:none"
           d="m 0,0 c 0,-1.216 0.281,-2.138 0.842,-2.765 0.562,-0.628 1.275,-0.941 2.139,-0.941 0.864,0 1.573,0.311 2.127,0.934 C 5.663,-2.149 5.94,-1.216 5.94,0.029 5.94,1.26 5.67,2.178 5.131,2.783 4.591,3.389 3.875,3.691 2.981,3.691 2.087,3.691 1.367,3.385 0.82,2.772 0.273,2.159 0,1.235 0,0 m -2.234,-0.073 c 0,1.094 0.164,2.011 0.491,2.754 0.244,0.547 0.577,1.038 1,1.472 0.422,0.435 0.885,0.757 1.388,0.967 0.668,0.283 1.44,0.425 2.314,0.425 1.582,0 2.848,-0.491 3.798,-1.473 0.949,-0.981 1.424,-2.345 1.424,-4.093 0,-1.734 -0.471,-3.09 -1.413,-4.07 -0.943,-0.978 -2.203,-1.468 -3.78,-1.468 -1.596,0 -2.866,0.487 -3.808,1.461 -0.943,0.974 -1.414,2.316 -1.414,4.025" />
      </g>
      <g
         transform="translate(143.0059,411.9424)"
         id="g64">
        <path
           inkscape:connector-curvature="0"
           id="path66"
           style="fill:#231f20;fill-opacity:1;fill-rule:nonzero;stroke:none"
           d="M 0,0 H 1.604 C 2.644,0 3.293,0.044 3.552,0.132 3.811,0.22 4.014,0.371 4.16,0.586 4.307,0.801 4.38,1.069 4.38,1.392 4.38,1.753 4.283,2.045 4.091,2.267 3.897,2.489 3.625,2.63 3.274,2.688 3.098,2.713 2.571,2.725 1.692,2.725 H 0 Z M -2.168,-6.196 V 4.541 H 2.395 C 3.542,4.541 4.376,4.444 4.896,4.252 5.416,4.059 5.833,3.716 6.145,3.223 6.458,2.729 6.614,2.166 6.614,1.531 6.614,0.726 6.377,0.06 5.903,-0.465 5.43,-0.99 4.722,-1.32 3.779,-1.457 4.248,-1.73 4.635,-2.031 4.94,-2.358 5.245,-2.686 5.657,-3.267 6.174,-4.102 L 7.485,-6.196 H 4.893 l -1.568,2.337 c -0.556,0.835 -0.937,1.36 -1.142,1.578 -0.205,0.217 -0.423,0.366 -0.652,0.446 -0.23,0.081 -0.594,0.121 -1.092,0.121 H 0 v -4.482 z" />
      </g>
      <g
         transform="translate(151.6338,405.7461)"
         id="g68">
        <path
           inkscape:connector-curvature="0"
           id="path70"
           style="fill:#231f20;fill-opacity:1;fill-rule:nonzero;stroke:none"
           d="m 0,0 v 10.737 h 3.245 l 1.948,-7.324 1.926,7.324 h 3.252 V 0 H 8.357 V 8.452 L 6.226,0 H 4.138 L 2.014,8.452 V 0 Z" />
      </g>
      <path
         inkscape:connector-curvature="0"
         id="path72"
         style="fill:#231f20;fill-opacity:1;fill-rule:nonzero;stroke:none"
         d="m 164.092,416.483 h 2.168 v -10.737 h -2.168 z" />
      <g
         transform="translate(168.3477,405.7461)"
         id="g74">
        <path
           inkscape:connector-curvature="0"
           id="path76"
           style="fill:#231f20;fill-opacity:1;fill-rule:nonzero;stroke:none"
           d="m 0,0 v 10.737 h 2.109 l 4.395,-7.17 v 7.17 H 8.518 V 0 H 6.343 L 2.014,7.002 V 0 Z" />
      </g>
      <g
         transform="translate(184.1533,409.6943)"
         id="g78">
        <path
           inkscape:connector-curvature="0"
           id="path80"
           style="fill:#231f20;fill-opacity:1;fill-rule:nonzero;stroke:none"
           d="M 0,0 V 1.809 H 4.673 V -2.469 C 4.219,-2.908 3.561,-3.295 2.699,-3.63 1.837,-3.964 0.964,-4.131 0.081,-4.131 c -1.123,0 -2.102,0.235 -2.937,0.706 -0.835,0.472 -1.463,1.146 -1.883,2.022 -0.42,0.877 -0.63,1.83 -0.63,2.86 0,1.118 0.235,2.112 0.703,2.981 0.469,0.87 1.155,1.536 2.059,1.999 0.688,0.357 1.545,0.536 2.57,0.536 1.333,0 2.374,-0.281 3.124,-0.839 C 3.836,5.574 4.319,4.802 4.534,3.815 L 2.38,3.413 C 2.229,3.94 1.945,4.356 1.527,4.661 1.11,4.967 0.588,5.119 -0.037,5.119 c -0.947,0 -1.7,-0.3 -2.259,-0.9 -0.559,-0.601 -0.839,-1.492 -0.839,-2.674 0,-1.274 0.283,-2.231 0.85,-2.867 0.566,-0.638 1.308,-0.956 2.226,-0.956 0.455,0 0.91,0.089 1.366,0.267 0.457,0.178 0.849,0.395 1.176,0.649 V 0 Z" />
      </g>
      <g
         transform="translate(200.1274,409.9941)"
         id="g82">
        <path
           inkscape:connector-curvature="0"
           id="path84"
           style="fill:#231f20;fill-opacity:1;fill-rule:nonzero;stroke:none"
           d="M 0,0 -1.479,3.984 -2.93,0 Z M 3.992,-4.248 H 1.633 l -0.937,2.439 h -4.292 l -0.886,-2.439 h -2.3 L -2.6,6.489 h 2.292 z" />
      </g>
      <g
         transform="translate(207.4443,411.9424)"
         id="g86">
        <path
           inkscape:connector-curvature="0"
           id="path88"
           style="fill:#231f20;fill-opacity:1;fill-rule:nonzero;stroke:none"
           d="M 0,0 H 1.604 C 2.644,0 3.293,0.044 3.552,0.132 3.811,0.22 4.014,0.371 4.16,0.586 4.307,0.801 4.38,1.069 4.38,1.392 4.38,1.753 4.283,2.045 4.091,2.267 3.897,2.489 3.625,2.63 3.274,2.688 3.098,2.713 2.571,2.725 1.692,2.725 H 0 Z M -2.168,-6.196 V 4.541 H 2.395 C 3.542,4.541 4.376,4.444 4.896,4.252 5.416,4.059 5.833,3.716 6.145,3.223 6.458,2.729 6.614,2.166 6.614,1.531 6.614,0.726 6.377,0.06 5.903,-0.465 5.43,-0.99 4.722,-1.32 3.779,-1.457 4.248,-1.73 4.635,-2.031 4.94,-2.358 5.245,-2.686 5.657,-3.267 6.174,-4.102 L 7.485,-6.196 H 4.893 l -1.568,2.337 c -0.556,0.835 -0.937,1.36 -1.142,1.578 -0.205,0.217 -0.423,0.366 -0.652,0.446 -0.23,0.081 -0.594,0.121 -1.092,0.121 H 0 v -4.482 z" />
      </g>
      <g
         transform="translate(218.5186,405.7461)"
         id="g90">
        <path
           inkscape:connector-curvature="0"
           id="path92"
           style="fill:#231f20;fill-opacity:1;fill-rule:nonzero;stroke:none"
           d="m 0,0 v 8.921 h -3.186 v 1.816 H 5.347 V 8.921 H 2.168 V 0 Z" />
      </g>
      <g
         transform="translate(224.7148,409.2402)"
         id="g94">
        <path
           inkscape:connector-curvature="0"
           id="path96"
           style="fill:#231f20;fill-opacity:1;fill-rule:nonzero;stroke:none"
           d="m 0,0 2.109,0.205 c 0.127,-0.708 0.385,-1.228 0.773,-1.56 0.389,-0.332 0.912,-0.499 1.571,-0.499 0.698,0 1.224,0.148 1.578,0.444 0.354,0.295 0.531,0.64 0.531,1.036 0,0.254 -0.074,0.47 -0.223,0.648 C 6.19,0.452 5.93,0.607 5.559,0.739 5.305,0.827 4.727,0.983 3.823,1.208 2.661,1.496 1.846,1.851 1.377,2.271 0.718,2.861 0.388,3.581 0.388,4.431 0.388,4.978 0.543,5.489 0.854,5.965 1.163,6.441 1.61,6.804 2.193,7.053 2.777,7.302 3.481,7.427 4.307,7.427 5.654,7.427 6.669,7.131 7.35,6.54 8.031,5.949 8.389,5.161 8.423,4.175 L 6.255,4.079 C 6.162,4.631 5.963,5.027 5.658,5.27 5.353,5.511 4.895,5.632 4.285,5.632 3.655,5.632 3.162,5.503 2.805,5.244 2.576,5.078 2.461,4.855 2.461,4.577 2.461,4.323 2.568,4.106 2.783,3.926 3.057,3.696 3.721,3.457 4.775,3.208 5.83,2.959 6.61,2.701 7.115,2.435 7.621,2.169 8.017,1.805 8.302,1.344 8.588,0.882 8.73,0.312 8.73,-0.366 8.73,-0.981 8.56,-1.558 8.218,-2.095 7.876,-2.632 7.393,-3.031 6.768,-3.293 6.143,-3.554 5.364,-3.685 4.431,-3.685 c -1.357,0 -2.4,0.314 -3.127,0.942 C 0.576,-2.116 0.142,-1.201 0,0" />
      </g>
      <g
         transform="translate(246.3066,409.6943)"
         id="g98">
        <path
           inkscape:connector-curvature="0"
           id="path100"
           style="fill:#231f20;fill-opacity:1;fill-rule:nonzero;stroke:none"
           d="M 0,0 2.102,-0.667 C 1.78,-1.839 1.244,-2.709 0.495,-3.278 c -0.75,-0.569 -1.701,-0.853 -2.853,-0.853 -1.426,0 -2.598,0.486 -3.516,1.461 -0.918,0.974 -1.377,2.306 -1.377,3.995 0,1.787 0.461,3.175 1.384,4.164 0.923,0.989 2.137,1.484 3.64,1.484 1.314,0 2.381,-0.389 3.201,-1.165 C 1.462,5.349 1.829,4.689 2.073,3.83 L -0.073,3.317 C -0.2,3.874 -0.465,4.313 -0.868,4.636 -1.271,4.958 -1.76,5.119 -2.336,5.119 -3.132,5.119 -3.778,4.834 -4.274,4.263 -4.77,3.691 -5.017,2.766 -5.017,1.486 c 0,-1.357 0.244,-2.324 0.732,-2.9 0.489,-0.576 1.123,-0.864 1.905,-0.864 0.576,0 1.071,0.183 1.486,0.549 C -0.479,-1.362 -0.181,-0.786 0,0" />
      </g>
      <g
         transform="translate(250.269,405.7461)"
         id="g102">
        <path
           inkscape:connector-curvature="0"
           id="path104"
           style="fill:#231f20;fill-opacity:1;fill-rule:nonzero;stroke:none"
           d="M 0,0 V 10.737 H 7.961 V 8.921 H 2.168 V 6.541 H 7.559 V 4.731 H 2.168 V 1.81 H 8.167 V 0 Z" />
      </g>
      <g
         transform="translate(260.2959,405.7461)"
         id="g106">
        <path
           inkscape:connector-curvature="0"
           id="path108"
           style="fill:#231f20;fill-opacity:1;fill-rule:nonzero;stroke:none"
           d="m 0,0 v 10.737 h 2.109 l 4.395,-7.17 v 7.17 H 8.518 V 0 H 6.343 L 2.014,7.002 V 0 Z" />
      </g>
      <g
         transform="translate(273.5234,405.7461)"
         id="g110">
        <path
           inkscape:connector-curvature="0"
           id="path112"
           style="fill:#231f20;fill-opacity:1;fill-rule:nonzero;stroke:none"
           d="m 0,0 v 8.921 h -3.186 v 1.816 H 5.347 V 8.921 H 2.168 V 0 Z" />
      </g>
      <g
         transform="translate(280.269,405.7461)"
         id="g114">
        <path
           inkscape:connector-curvature="0"
           id="path116"
           style="fill:#231f20;fill-opacity:1;fill-rule:nonzero;stroke:none"
           d="M 0,0 V 10.737 H 7.961 V 8.921 H 2.168 V 6.541 H 7.559 V 4.731 H 2.168 V 1.81 H 8.167 V 0 Z" />
      </g>
      <g
         transform="translate(292.4492,411.9424)"
         id="g118">
        <path
           inkscape:connector-curvature="0"
           id="path120"
           style="fill:#231f20;fill-opacity:1;fill-rule:nonzero;stroke:none"
           d="M 0,0 H 1.604 C 2.644,0 3.293,0.044 3.552,0.132 3.811,0.22 4.014,0.371 4.16,0.586 4.307,0.801 4.38,1.069 4.38,1.392 4.38,1.753 4.283,2.045 4.091,2.267 3.897,2.489 3.625,2.63 3.274,2.688 3.098,2.713 2.571,2.725 1.692,2.725 H 0 Z M -2.168,-6.196 V 4.541 H 2.395 C 3.542,4.541 4.376,4.444 4.896,4.252 5.416,4.059 5.833,3.716 6.145,3.223 6.458,2.729 6.614,2.166 6.614,1.531 6.614,0.726 6.377,0.06 5.903,-0.465 5.43,-0.99 4.722,-1.32 3.779,-1.457 4.248,-1.73 4.635,-2.031 4.94,-2.358 5.245,-2.686 5.657,-3.267 6.174,-4.102 L 7.485,-6.196 H 4.893 l -1.568,2.337 c -0.556,0.835 -0.937,1.36 -1.142,1.578 -0.205,0.217 -0.423,0.366 -0.652,0.446 -0.23,0.081 -0.594,0.121 -1.092,0.121 H 0 v -4.482 z" />
      </g>
      <g
         transform="translate(191.041,538.54)"
         id="g122">
        <path
           inkscape:connector-curvature="0"
           id="path124"
           style="fill:#231f20;fill-opacity:1;fill-rule:nonzero;stroke:none"
           d="M 0,0 H 15.616 V -17.684 H 32.68 V 0 H 48.364 V -50.536 H 32.68 v 20.442 H 15.616 V -50.536 H 0 Z" />
      </g>
      <g
         transform="translate(88.7173,478.5312)"
         id="g126">
        <path
           inkscape:connector-curvature="0"
           id="path128"
           style="fill:#231f20;fill-opacity:1;fill-rule:nonzero;stroke:none"
           d="M 0,0 H 15.616 V -38.092 H 39.987 V -50.536 H 0 Z" />
      </g>
      <g
         transform="translate(246.0942,478.5312)"
         id="g130">
        <path
           inkscape:connector-curvature="0"
           id="path132"
           style="fill:#231f20;fill-opacity:1;fill-rule:nonzero;stroke:none"
           d="M 0,0 H 15.616 V -19.098 L 31.974,0 H 52.742 L 34.301,-19.075 53.569,-50.536 h -19.23 l -10.655,20.783 -8.068,-8.452 V -50.536 H 0 Z" />
      </g>
      <g
         transform="translate(184.3521,513.189)"
         id="g134">
        <path
           inkscape:connector-curvature="0"
           id="path136"
           style="fill:#5e2590;fill-opacity:1;fill-rule:nonzero;stroke:none"
           d="m 0,0 c 0,14.853 -12.041,26.894 -26.894,26.894 -14.854,0 -26.894,-12.041 -26.894,-26.894 0,-14.854 12.04,-26.894 26.894,-26.894 C -12.041,-26.894 0,-14.854 0,0" />
      </g>
      <g
         transform="translate(184.3521,454.8892)"
         id="g138">
        <path
           inkscape:connector-curvature="0"
           id="path140"
           style="fill:#00adef;fill-opacity:1;fill-rule:nonzero;stroke:none"
           d="m 0,0 c 0,14.853 -12.041,26.894 -26.894,26.894 -14.854,0 -26.894,-12.041 -26.894,-26.894 0,-14.853 12.04,-26.894 26.894,-26.894 C -12.041,-26.894 0,-14.853 0,0" />
      </g>
      <g
         transform="translate(242.1172,454.8892)"
         id="g142">
        <path
           inkscape:connector-curvature="0"
           id="path144"
           style="fill:#37ab9c;fill-opacity:1;fill-rule:nonzero;stroke:none"
           d="m 0,0 c 0,14.853 -12.041,26.894 -26.894,26.894 -14.854,0 -26.894,-12.041 -26.894,-26.894 0,-14.853 12.04,-26.894 26.894,-26.894 C -12.041,-26.894 0,-14.853 0,0" />
      </g>
    </g>
  </g>
</svg>
