<?xml version="1.0" encoding="UTF-8" standalone="no"?>
<!-- Created with Inkscape (http://www.inkscape.org/) -->

<svg
   xmlns:dc="http://purl.org/dc/elements/1.1/"
   xmlns:cc="http://creativecommons.org/ns#"
   xmlns:rdf="http://www.w3.org/1999/02/22-rdf-syntax-ns#"
   xmlns:svg="http://www.w3.org/2000/svg"
   xmlns="http://www.w3.org/2000/svg"
   xmlns:sodipodi="http://sodipodi.sourceforge.net/DTD/sodipodi-0.dtd"
   xmlns:inkscape="http://www.inkscape.org/namespaces/inkscape"
   width="6.9000001in"
   height="2.1199999in"
   viewBox="0 0 175.26 53.847994"
   version="1.1"
   id="svg8"
   inkscape:version="0.92.3 (2405546, 2018-03-11)"
   sodipodi:docname="news.svg">
  <defs
     id="defs2" />
  <sodipodi:namedview
     id="base"
     pagecolor="#ffffff"
     bordercolor="#666666"
     borderopacity="1.0"
     inkscape:pageopacity="0.0"
     inkscape:pageshadow="2"
     inkscape:zoom="4.0000001"
     inkscape:cx="366.64187"
     inkscape:cy="165.00155"
     inkscape:document-units="mm"
     inkscape:current-layer="layer1"
     showgrid="false"
     units="in"
     fit-margin-top="0"
     fit-margin-left="0"
     fit-margin-right="0"
     fit-margin-bottom="0"
     inkscape:showpageshadow="false"
     inkscape:window-width="3840"
     inkscape:window-height="2035"
     inkscape:window-x="-13"
     inkscape:window-y="-13"
     inkscape:window-maximized="1" />
  <metadata
     id="metadata5">
    <rdf:RDF>
      <cc:Work
         rdf:about="">
        <dc:format>image/svg+xml</dc:format>
        <dc:type
           rdf:resource="http://purl.org/dc/dcmitype/StillImage" />
        <dc:title></dc:title>
      </cc:Work>
    </rdf:RDF>
  </metadata>
  <g
     inkscape:label="Layer 1"
     inkscape:groupmode="layer"
     id="layer1"
     transform="translate(-88.76738,-190.2352)">
    <g
       id="g897">
      <g
         style="stroke-width:1.00638354"
         transform="matrix(0.98735423,0,0,1,1.1225321,0)"
         id="g885">
        <path
           style="opacity:1;fill:#5e2590;fill-opacity:1;stroke:none;stroke-width:0.26627228;stroke-miterlimit:4;stroke-dasharray:none;stroke-opacity:1"
           d="m 88.76738,189.57883 h 59.26671 v 54.50436 H 88.76738 Z"
           id="rect827" />
        <path
           style="opacity:1;fill:#37ab9c;fill-opacity:1;stroke:none;stroke-width:0.26627228;stroke-miterlimit:4;stroke-dasharray:none;stroke-opacity:1"
           d="m 207.03542,189.57883 h 59.2667 v 54.50436 h -59.2667 z"
           id="rect829" />
        <path
           style="opacity:1;fill:#00adef;fill-opacity:1;stroke:none;stroke-width:0.26627228;stroke-miterlimit:4;stroke-dasharray:none;stroke-opacity:1"
           d="m 148.03407,189.57883 h 59.26671 v 54.50436 h -59.26671 z"
           id="rect831" />
      </g>
      <g
         aria-label="Register For Fall"
         style="font-style:normal;font-variant:normal;font-weight:normal;font-stretch:normal;font-size:14.11111069px;line-height:1.25;font-family:'Permanent Marker';-inkscape-font-specification:'Permanent Marker';letter-spacing:0px;word-spacing:0px;fill:#efffff;fill-opacity:1;stroke:none;stroke-width:0.26458332"
         id="text889">
        <path
           d="m 117.06677,220.47456 q -0.0689,0.0138 -0.12402,-0.0965 -0.0551,-0.12402 -0.12402,-0.23426 h 0.15158 q -0.0965,-0.30317 -0.0551,-0.55122 0.0551,-0.26183 0.12402,-0.49609 0.0689,-0.24805 0.11025,-0.46854 0.0551,-0.23426 -0.0413,-0.48231 0.0689,0.0413 0.0965,-0.0276 0.0413,-0.0827 0.0551,-0.19293 0.0276,-0.12402 0.0138,-0.24804 0,-0.13781 -0.0138,-0.22049 0.17914,-0.42719 0.27561,-0.88194 0.11024,-0.45476 0.19292,-0.89573 0.0827,-0.45475 0.17915,-0.86816 0.11024,-0.42719 0.27561,-0.79926 0.19292,-0.0276 0.39963,0.0551 0.22048,0.0689 0.28938,0.17914 0.4272,-0.33073 0.75793,-0.79926 0.33072,-0.46853 0.66145,-0.9095 0.34451,-0.45476 0.7717,-0.79927 0.4272,-0.34451 1.06109,-0.41341 0.33073,0.23427 0.74414,0.50988 0.41342,0.26182 0.67524,0.66145 0.11025,0.0689 0.20671,0.15159 0.11024,0.0689 0.22049,0.1378 v 0.20671 q 0.19292,0.17914 0.31694,0.42719 0.13781,0.23427 0.23427,0.50987 0.11024,0.26183 0.20671,0.53744 0.0965,0.27561 0.22048,0.50987 -0.0276,0.0827 -0.0276,0.15159 0.0138,0.0551 0.0276,0.12402 0.0276,0.0551 0.0413,0.1378 0.0138,0.0689 0.0138,0.17915 -0.0551,0.73036 -0.48231,1.18511 -0.41341,0.44097 -1.01975,0.73036 -0.59255,0.27561 -1.26779,0.48232 -0.67524,0.19292 -1.22646,0.42719 0,0.0551 0.0551,0.0551 0.0689,0 0.0413,0.0827 0.41341,0.24805 0.63389,0.39963 0.23427,0.15159 0.4272,0.26183 0.2067,0.0965 0.44097,0.16536 0.24804,0.0689 0.67524,0.16537 0.42719,0.0965 0.66145,0.16536 0.24805,0.0551 0.44098,0.0965 0.19292,0.0276 0.41341,0.0551 0.22048,0.0276 0.59255,0.0689 0.15159,0.15158 0.24805,0.35829 0.0965,0.20671 0.13781,0.41341 0.0413,0.20671 0.0138,0.39963 -0.0138,0.17915 -0.11025,0.28939 0.0138,0.0551 0.0689,0.0551 0.0689,-0.0138 0.13781,0 -0.0965,0.0689 -0.16537,0.16537 -0.0689,0.0965 -0.1378,0.19292 -0.0689,0.0965 -0.16536,0.17915 -0.0827,0.0827 -0.22049,0.0965 -0.49609,0.19292 -1.2678,0.0138 -0.7717,-0.17915 -1.97059,-0.6339 -0.59256,-0.22048 -0.96463,-0.39963 -0.37207,-0.17914 -0.64768,-0.34451 -0.2756,-0.17914 -0.50987,-0.37207 -0.23427,-0.2067 -0.53743,-0.48231 -0.0413,0.0138 -0.0551,0.0551 0,0.0413 -0.0413,0.0551 -0.0689,0.55122 -0.22048,0.89573 -0.13781,0.3445 -0.41341,0.70279 -0.22049,-0.0413 -0.30317,0.0413 -0.0689,0.0827 -0.17915,0.15158 -0.1378,0.0276 -0.2067,-0.0138 -0.0689,-0.0276 -0.12403,-0.0689 -0.0551,-0.0413 -0.12402,-0.0827 -0.0689,-0.0413 -0.22049,-0.0276 -0.0413,-0.12402 -0.0827,-0.23426 -0.0413,-0.12403 -0.22048,-0.11024 0.0413,-0.12403 0.0276,-0.20671 -0.0138,-0.0965 -0.0413,-0.16536 -0.0276,-0.0827 -0.0551,-0.16537 -0.0138,-0.0827 0.0276,-0.19292 z m 4.60265,-6.29764 q -0.17914,0.26183 -0.39963,0.48231 -0.22049,0.20671 -0.44097,0.44098 -0.20671,0.22048 -0.37207,0.49609 -0.16537,0.26183 -0.23427,0.6339 0.57878,-0.0689 1.21268,-0.31695 0.63389,-0.26183 1.19889,-0.49609 -0.0689,-0.50988 -0.35829,-0.81305 -0.28939,-0.31695 -0.60634,-0.42719 z"
           style="font-size:14.11111069px;fill:#efffff;fill-opacity:1;stroke-width:0.26458332"
           id="path902" />
        <path
           d="m 133.49299,213.90131 q 0.0138,0.0965 0,0.15159 0,0.0413 -0.0138,0.0827 0,0.0413 0,0.0965 0,0.0413 0.0276,0.13781 -0.28939,0.46853 -0.67524,0.64767 -0.37207,0.16537 -0.81304,0.24805 -0.44097,0.0689 -0.90951,0.15159 -0.45475,0.0827 -0.9095,0.35829 -0.17915,-0.0689 -0.33073,0 -0.1378,0.0689 -0.41341,0.0413 -0.0827,0.0827 -0.20671,0.12402 -0.12402,0.0276 -0.24805,0.0689 0.0551,0.12402 0.0413,0.26183 0,0.12402 0.0413,0.2067 0.48231,0.0413 1.06109,-0.0138 0.59255,-0.0551 1.15755,-0.0689 0.0138,0.0689 -0.0138,0.0965 -0.0276,0.0138 -0.0138,0.0689 0.0965,0.0689 0.19292,0.17914 0.0965,0.0965 0.19293,0.19293 0.0965,0.0965 0.19292,0.16536 0.11025,0.0551 0.24805,0.0413 0.0551,0.11025 0.0689,0.24805 0.0276,0.12402 -0.0276,0.26183 -0.22048,0.15158 -0.44097,0.31695 -0.22049,0.15158 -0.46853,0.2756 -0.23427,0.12403 -0.50988,0.20671 -0.26182,0.0689 -0.59255,0.0551 -0.0689,0 -0.11025,0 -0.0276,0 -0.0827,-0.0413 -0.11024,0.0689 -0.31695,0.0413 -0.19292,-0.0276 -0.30317,0.0413 -0.15158,-0.0689 -0.37207,-0.0551 -0.2067,0 -0.37207,-0.0551 -0.22048,0.28939 -0.39963,0.62012 -0.17914,0.33073 -0.31695,0.7028 0.46854,0.0689 0.7717,0.0551 0.31695,-0.0138 0.59256,-0.0413 0.27561,-0.0413 0.565,-0.0689 0.28938,-0.0413 0.73036,-0.0276 0.2756,-0.15158 0.64767,-0.19292 0.38586,-0.0551 0.7028,-0.16537 0.11025,0.0413 0.19293,0.15159 0.0827,0.0965 0.15158,0.19292 0.0827,0.0827 0.16537,0.15159 0.0827,0.0689 0.2067,0.0551 0.0551,0.0551 0.0689,0.1378 0.0276,0.0689 0.0413,0.13781 0.0138,0.0689 0.0413,0.12402 0.0413,0.0413 0.12402,0.0276 -0.2067,0.45475 -0.48231,0.7028 -0.26183,0.23427 -0.60634,0.35829 -0.34451,0.12402 -0.7717,0.19292 -0.41341,0.0689 -0.92329,0.16537 -0.12402,0.0276 -0.2067,-0.0138 -0.0827,-0.0276 -0.19293,-0.0276 -0.31695,0.0689 -0.75792,0.12402 -0.44097,0.0551 -0.89572,0.0413 -0.45475,-0.0138 -0.86817,-0.12402 -0.41341,-0.0965 -0.67523,-0.35829 -0.11025,-0.0965 -0.15159,-0.22049 -0.0276,-0.1378 -0.17914,-0.2067 -0.0138,-0.17915 -0.0551,-0.39963 -0.0413,-0.22049 -0.0827,-0.45476 -0.0413,-0.24804 -0.0689,-0.48231 -0.0138,-0.23427 0.0276,-0.42719 0.0413,-0.20671 0.16537,-0.37207 0.1378,-0.16537 0.0965,-0.35829 0.0689,-0.0138 0.0827,-0.0689 0.0138,-0.0689 0.11024,-0.0551 0.0827,-0.24805 0.17915,-0.46854 0.0965,-0.22048 0.19292,-0.42719 0.11025,-0.20671 0.20671,-0.41341 0.11024,-0.22049 0.20671,-0.48231 -0.19293,-0.17915 -0.28939,-0.38586 -0.0827,-0.22048 -0.12403,-0.42719 -0.0413,-0.22048 -0.0689,-0.44097 -0.0276,-0.23427 -0.0965,-0.46853 0.1378,-0.20671 0.33073,-0.33073 0.2067,-0.13781 0.44097,-0.22049 0.23427,-0.0827 0.50987,-0.1378 0.27561,-0.0551 0.57878,-0.12402 0.55122,-0.17915 0.97841,-0.27561 0.44097,-0.0965 0.85438,-0.15159 0.42719,-0.0689 0.88195,-0.12402 0.45475,-0.0551 1.03352,-0.16536 0.12403,0.12402 0.23427,0.12402 0.0551,-0.12402 0.12402,-0.0689 0.0827,0.0413 0.0689,-0.0827 0.1378,0.23427 0.34451,0.39964 0.22048,0.15158 0.48231,0.26182 z"
           style="font-size:14.11111069px;fill:#efffff;fill-opacity:1;stroke-width:0.26458332"
           id="path904" />
        <path
           d="m 142.93255,219.1792 q -0.33073,0.59256 -0.86816,0.92328 -0.53744,0.31695 -1.18512,0.53744 -0.64767,0.20671 -1.36425,0.37207 -0.7028,0.16536 -1.36426,0.42719 -0.19293,0 -0.34451,0.0138 -0.13781,0.0138 -0.27561,0.0413 -0.12402,0.0138 -0.24805,0.0413 -0.12402,0.0138 -0.2756,0.0276 -0.0551,-0.0138 -0.0689,0.0276 -0.0138,0.0276 -0.0413,0.0551 -0.23426,0.0413 -0.42719,0.0413 -0.17914,0 -0.30317,0 -0.16536,0 -0.34451,0.0413 -0.16536,0.0551 -0.30316,0.0413 -1.03353,-0.0551 -1.62609,-0.73036 -0.57878,-0.68902 -0.64768,-1.90169 0.0138,-0.0689 -0.0276,-0.0827 -0.0276,-0.0138 -0.0551,-0.0413 0,-0.1378 0.0276,-0.23426 0.0413,-0.0965 0.0138,-0.24805 0.35829,-0.75792 0.81304,-1.4056 0.45476,-0.66146 1.08865,-1.15755 0.0965,-0.0827 0.16537,-0.16536 0.0689,-0.0827 0.12402,-0.16537 0.0689,-0.0827 0.15159,-0.1378 0.0827,-0.0689 0.2067,-0.0965 0.28939,-0.33072 0.68902,-0.60633 0.39963,-0.27561 0.8406,-0.52366 0.44098,-0.26182 0.86817,-0.50987 0.44097,-0.26183 0.79926,-0.57878 0.15158,0.0689 0.22049,0.0413 0.0689,-0.0276 0.15158,0 0.0965,0.20671 0.26183,0.28939 0.17914,0.0827 0.34451,0.17915 0.17914,0.0827 0.33073,0.2067 0.15158,0.12403 0.23426,0.33073 -0.0827,0 -0.0827,0.0689 0.0138,0.0551 0.0413,0.12403 0.0276,0.0551 0.0138,0.12402 0,0.0551 -0.0965,0.0551 0.0138,0.0689 0.0827,0.0827 0.0827,0 0.0827,0.0689 0,0.0689 -0.0413,0.11024 -0.0276,0.0413 0,0.1378 -0.2756,0.17915 -0.62011,0.34451 -0.33073,0.16537 -0.7028,0.35829 -0.35829,0.17915 -0.75792,0.39963 -0.38586,0.20671 -0.75793,0.48232 -0.37207,0.27561 -0.75792,0.62011 -0.38585,0.33073 -0.74414,0.7028 -0.35829,0.37207 -0.67524,0.77171 -0.31694,0.38585 -0.53743,0.7717 0.0276,0.0689 0.0551,0.11024 0.0413,0.0276 0.0689,0.0965 0.44097,0.0276 0.81305,0 0.38585,-0.0413 0.7717,0.0413 0.0413,-0.0276 0.0551,-0.0827 0.0138,-0.0551 0.0689,-0.0827 0.78548,-0.0827 1.46072,-0.24805 0.67524,-0.17914 1.37804,-0.37207 -0.11024,-0.0413 -0.20671,-0.0689 -0.0827,-0.0413 -0.16536,-0.0689 -0.0689,-0.0689 0,-0.11024 0.0827,-0.0551 0.1378,-0.11025 -0.19292,-0.11024 -0.31695,-0.27561 -0.11024,-0.16536 -0.1378,-0.44097 0.0827,-0.0689 0.0827,-0.16536 0,-0.0965 -0.0827,-0.15159 -0.0551,-0.0138 -0.0689,0 -0.0138,0.0138 -0.0276,0.0413 0,0.0276 -0.0138,0.0551 -0.0138,0.0138 -0.0689,-0.0138 0.0138,-0.12403 0.0551,-0.20671 0.0551,-0.0827 0.0827,-0.19293 l 0.95084,-0.63389 q 0.15159,0.11024 0.37208,0.24804 0.22048,0.12403 0.45475,0.26183 0.24804,0.12402 0.49609,0.26183 0.26183,0.12402 0.48231,0.24805 0.19293,0.0827 0.34451,0.22048 0.15159,0.13781 0.28939,0.28939 0.13781,0.1378 0.27561,0.27561 0.15158,0.1378 0.34451,0.23426 -0.0276,0.17915 0.0138,0.28939 0.0413,0.11024 0.0276,0.27561 z"
           style="font-size:14.11111069px;fill:#efffff;fill-opacity:1;stroke-width:0.26458332"
           id="path906" />
        <path
           d="m 144.61376,220.69504 q 0.0689,0.41341 -0.0551,0.64768 -0.11025,0.23427 -0.33073,0.34451 -0.20671,0.12402 -0.48232,0.1378 -0.2756,0.0138 -0.52365,-0.0276 -0.13781,-0.19292 -0.24805,-0.48231 -0.11024,-0.28939 -0.2067,-0.59256 -0.0965,-0.31695 -0.17915,-0.62012 -0.0689,-0.30316 -0.12402,-0.53743 0.0689,-0.16536 0.0827,-0.37207 0.0276,-0.22049 0.0276,-0.44097 0.0138,-0.22049 0.0138,-0.44097 0.0138,-0.23427 0.0413,-0.44098 0.0965,-0.57877 0.27561,-1.10243 0.19292,-0.52365 0.30317,-1.08865 0.0276,-0.12402 -0.0276,-0.23426 -0.0413,-0.11025 -0.0138,-0.20671 0.0138,-0.0551 0.0827,-0.0689 0.0689,-0.0276 0.0827,-0.0965 0.0413,-0.15159 0.0138,-0.24805 -0.0138,-0.0965 0.0551,-0.23427 0.0689,-0.11024 0.16537,-0.31695 0.11024,-0.22048 0.0827,-0.45475 0.12402,-0.0827 0.23427,-0.19292 0.11024,-0.11025 0.22048,-0.19293 0.12403,-0.0965 0.26183,-0.16536 0.15158,-0.0689 0.35829,-0.0689 0.11024,0.13781 0.1378,0.30317 0.0413,0.16537 0.0689,0.33073 0.0413,0.16537 0.11024,0.31695 0.0689,0.1378 0.23427,0.22049 0,0.11024 0,0.2756 0,0.16537 0.0138,0.33073 0.0138,0.15159 0.0551,0.28939 0.0551,0.12402 0.16536,0.16537 -0.24805,0.66145 -0.46853,1.30913 -0.20671,0.64768 -0.34451,1.30914 -0.1378,0.64768 -0.17915,1.30913 -0.0276,0.66146 0.0965,1.3367 z"
           style="font-size:14.11111069px;fill:#efffff;fill-opacity:1;stroke-width:0.26458332"
           id="path908" />
        <path
           d="m 146.44655,215.4585 q 0.0965,-0.28939 0.30317,-0.4961 0.22048,-0.2067 0.46853,-0.34451 0.26183,-0.15158 0.53744,-0.24804 0.2756,-0.0965 0.52365,-0.16537 0.55121,-0.23426 1.17133,-0.44097 0.6339,-0.22049 1.28158,-0.38585 0.66146,-0.16537 1.35047,-0.20671 0.68902,-0.0551 1.44694,0.16537 0.0413,0.1378 0.12403,0.26182 0.0827,0.12403 0.16536,0.24805 0.0965,0.12403 0.16537,0.24805 0.0689,0.11024 0.0827,0.23426 0.1378,0.12403 0.22049,0.27561 0.0827,0.13781 0.0276,0.37207 -0.13781,0.11025 -0.27561,0.20671 -0.12402,0.0827 -0.27561,0.15158 -0.50987,-0.12402 -1.03353,-0.0827 -0.52365,0.0413 -0.93706,0.0689 -0.12403,-0.12402 -0.30317,-0.12402 -0.16537,0 -0.35829,0.0551 -0.17915,0.0551 -0.37207,0.11024 -0.17915,0.0551 -0.34451,0.0276 -0.13781,0.11025 -0.34451,0.15159 -0.19293,0.0276 -0.42719,0.0551 -0.0138,0.0689 0.0276,0.0965 0.0413,0.0138 0.0138,0.0827 0.0827,0.0965 0.2067,0.1378 0.13781,0.0413 0.27561,0.0827 0.15159,0.0413 0.26183,0.11024 0.11024,0.0551 0.15158,0.19293 0.20671,0 0.35829,0.0965 0.15159,0.0965 0.24805,0.23427 0.0965,0.1378 0.1378,0.30317 0.0551,0.15158 0.0551,0.2756 0.0413,0.11025 0.0965,0.0965 0.0551,-0.0138 0.12402,0.0551 0.0413,0.17914 0.20671,0.37207 0.16536,0.17914 0.26182,0.39963 0.0276,0.34451 0.0413,0.62012 0.0138,0.26182 -0.0965,0.53743 -0.2067,0.50988 -0.57877,0.90951 -0.35829,0.39963 -0.82683,0.71658 -0.45475,0.30317 -0.9784,0.52365 -0.52366,0.22049 -1.01975,0.37207 -0.0551,-0.0138 -0.11024,0 -0.0551,0.0138 -0.0276,-0.0689 -0.11024,0.0965 -0.24804,0.12402 -0.12403,0.0276 -0.27561,0.0138 -0.15158,0 -0.31695,-0.0138 -0.15158,-0.0138 -0.28939,0.0138 -0.0965,-0.0965 -0.17914,-0.19292 -0.0689,-0.0827 -0.11024,-0.22049 -0.0689,0 -0.0689,-0.0689 0.0138,-0.0689 -0.0413,-0.0689 0.0827,-0.13781 0.0689,-0.15159 0,-0.0276 -0.0413,-0.0413 -0.0276,-0.0138 -0.0551,-0.0276 -0.0276,-0.0276 -0.0138,-0.0689 0.0551,-0.11024 0.0413,-0.24805 -0.0138,-0.15158 -0.0276,-0.30316 -0.0138,-0.15159 0.0138,-0.28939 0.0413,-0.13781 0.20671,-0.22049 0.46853,0.0551 0.88194,-0.0276 0.42719,-0.0965 0.79926,-0.26183 0.37207,-0.16536 0.7028,-0.35829 0.34451,-0.19292 0.67524,-0.34451 0.0413,-0.12402 0.11025,-0.2067 0.0827,-0.0827 0.16536,-0.15159 0.0827,-0.0689 0.15158,-0.15158 0.0689,-0.0827 0.0965,-0.20671 0.0138,-0.0965 -0.0551,-0.11024 -0.0551,-0.0276 -0.0551,-0.11024 l -0.15158,-0.0413 q -0.26183,-0.15159 -0.59256,-0.24805 -0.33073,-0.11024 -0.56499,-0.23427 -0.15159,0.0827 -0.28939,0.0413 -0.12402,-0.0413 -0.33073,-0.0827 -0.46853,-0.0276 -0.9095,-0.0965 -0.4272,-0.0689 -0.82683,-0.24805 -0.0276,-0.0689 -0.0689,-0.12402 -0.0413,-0.0551 -0.15158,-0.0276 -0.0827,-0.11024 -0.16537,-0.20671 -0.0827,-0.11024 -0.15158,-0.23426 0.0276,-0.16537 0.0413,-0.27561 0.0138,-0.12402 -0.0827,-0.23427 0.0551,-0.17914 0.0827,-0.28939 0.0276,-0.11024 0,-0.28938 z"
           style="font-size:14.11111069px;fill:#efffff;fill-opacity:1;stroke-width:0.26458332"
           id="path910" />
        <path
           d="m 160.62656,215.0313 q -0.34451,0 -0.74414,0.0551 -0.39963,0.0413 -0.78548,0.0965 -0.27561,0.0413 -0.53744,0.0689 -0.24804,0.0276 -0.45475,0.0413 -0.0965,0.30317 -0.19293,0.53744 -0.0965,0.23426 -0.2067,0.45475 -0.11024,0.23427 -0.20671,0.48231 -0.0827,0.23427 -0.16536,0.50988 -0.13781,0.22048 -0.23427,0.41341 -0.0827,0.17914 -0.1378,0.41341 -0.16537,0.20671 -0.24805,0.44097 -0.0827,0.22049 -0.12402,0.38585 l -0.0551,0.16537 q -0.0827,0.0827 -0.0965,0.1378 -0.0138,0.0413 -0.0689,0.0827 -0.0138,0.15159 -0.0965,0.30317 -0.0276,0.0689 -0.0413,0.13781 -0.0138,0.0551 -0.0138,0.0827 0,0.1378 -0.0689,0.17914 0.0138,0.0689 0,0.15159 -0.0138,0.0689 -0.0276,0.1378 -0.0413,0.16537 -0.0276,0.26183 0.0414,0.0551 0.0689,0.0965 0.0413,0.0413 0.0551,0.11024 0.0827,0.0551 0.12402,0.0689 0.0551,0.0413 0.16537,0.0965 l 0.12402,0.1378 q 0.0689,0.39963 -0.12402,0.6339 -0.20671,0.26183 -0.7028,0.26183 h -0.16537 q -0.0689,-0.0689 -0.0827,-0.11025 -0.11024,-0.0413 -0.17915,-0.0689 -0.0689,-0.0276 -0.12402,-0.11024 -0.17914,-0.0827 -0.28939,-0.13781 l -0.12402,-0.0689 q 0,-0.15158 0,-0.16536 -0.0965,-0.12403 -0.15158,-0.27561 -0.0413,-0.15158 -0.0689,-0.30317 -0.0276,-0.12402 -0.0689,-0.23426 -0.0276,-0.11025 -0.0827,-0.19293 -0.0276,-0.79926 0.15158,-1.35048 0.17915,-0.55121 0.37207,-1.06109 0.11025,-0.2756 0.22049,-0.55121 0.11024,-0.28939 0.19292,-0.59256 l 0.12403,-0.1378 q 0.0965,-0.22049 0.15158,-0.35829 0.0689,-0.15159 0.13781,-0.30317 0.0413,-0.0965 0.0689,-0.17914 0.0413,-0.0965 0.0689,-0.16537 -0.0827,0 -0.15158,0.0138 -0.0689,0 -0.13781,0.0138 -0.0827,0.0138 -0.15158,0.0276 -0.0689,0 -0.13781,0 -0.0965,0 -0.1378,-0.0138 -0.15158,0.0689 -0.33073,0.0689 h -0.1378 q -0.0413,0 -0.0827,0 -0.0276,-0.0138 -0.0551,-0.0138 -0.1378,0 -0.22048,0.0413 -0.16537,0 -0.31695,0 h -0.13781 q -0.0276,0 -0.0689,0.0138 -0.0413,0 -0.0689,0 -0.0965,0 -0.2067,-0.0138 -0.11025,-0.0276 -0.23427,-0.0965 -0.16537,-0.22048 -0.22049,-0.23426 l -0.12402,-0.16537 q -0.0138,-0.0827 -0.0413,-0.15158 -0.0276,-0.0827 -0.0551,-0.17915 -0.0551,-0.1378 -0.11025,-0.28939 -0.0413,-0.16536 -0.0413,-0.38585 0.0138,-0.11024 0.0551,-0.16536 0.0413,-0.0551 0.0689,-0.0965 l 0.0413,-0.20671 0.17914,0.0138 h 0.38585 q 0.44097,0 0.89573,-0.0276 0.45475,-0.0413 0.93706,-0.0827 0.27561,-0.0276 0.55122,-0.0551 0.28939,-0.0276 0.59256,-0.0551 0.0551,-0.12402 0.11024,-0.23426 l 0.1378,-0.0689 q 0.24805,-0.0138 0.34451,0.0689 0.11024,0.0689 0.17915,0.1378 0.30316,-0.0276 0.60633,-0.0551 0.31695,-0.0413 0.6339,-0.0965 0.46853,-0.0689 0.93707,-0.12403 0.48231,-0.0551 0.92328,-0.0551 0.19293,0 0.37207,0.0138 0.17915,0.0138 0.33073,0.0413 l 0.13781,0.0965 q 0.0413,0.0827 0.11024,0.15158 0.0827,0.0689 0.16536,0.1378 0.16537,0.15159 0.33073,0.35829 0.16537,0.20671 0.12403,0.60634 -0.11025,0.16537 -0.16537,0.19293 l -0.12402,0.16536 -0.13781,-0.0138 q -0.0827,0 -0.15158,0.0276 -0.0689,0.0138 -0.1378,0.0413 -0.0551,0.0276 -0.11025,0.0551 -0.0551,0.0138 -0.12402,0.0276 -0.12402,0 -0.20671,0 -0.0689,-0.0138 -0.15158,-0.0138 z"
           style="font-size:14.11111069px;fill:#efffff;fill-opacity:1;stroke-width:0.26458332"
           id="path912" />
        <path
           d="m 167.25492,213.90131 q 0.0138,0.0965 0,0.15159 0,0.0413 -0.0138,0.0827 0,0.0413 0,0.0965 0,0.0413 0.0276,0.13781 -0.28938,0.46853 -0.67523,0.64767 -0.37207,0.16537 -0.81305,0.24805 -0.44097,0.0689 -0.9095,0.15159 -0.45475,0.0827 -0.90951,0.35829 -0.17914,-0.0689 -0.33073,0 -0.1378,0.0689 -0.41341,0.0413 -0.0827,0.0827 -0.2067,0.12402 -0.12403,0.0276 -0.24805,0.0689 0.0551,0.12402 0.0413,0.26183 0,0.12402 0.0413,0.2067 0.48232,0.0413 1.06109,-0.0138 0.59256,-0.0551 1.15755,-0.0689 0.0138,0.0689 -0.0138,0.0965 -0.0276,0.0138 -0.0138,0.0689 0.0965,0.0689 0.19293,0.17914 0.0965,0.0965 0.19292,0.19293 0.0965,0.0965 0.19293,0.16536 0.11024,0.0551 0.24805,0.0413 0.0551,0.11025 0.0689,0.24805 0.0276,0.12402 -0.0276,0.26183 -0.22049,0.15158 -0.44098,0.31695 -0.22048,0.15158 -0.46853,0.2756 -0.23426,0.12403 -0.50987,0.20671 -0.26183,0.0689 -0.59256,0.0551 -0.0689,0 -0.11024,0 -0.0276,0 -0.0827,-0.0413 -0.11025,0.0689 -0.31695,0.0413 -0.19293,-0.0276 -0.30317,0.0413 -0.15159,-0.0689 -0.37207,-0.0551 -0.20671,0 -0.37207,-0.0551 -0.22049,0.28939 -0.39963,0.62012 -0.17915,0.33073 -0.31695,0.7028 0.46853,0.0689 0.7717,0.0551 0.31695,-0.0138 0.59256,-0.0413 0.2756,-0.0413 0.56499,-0.0689 0.28939,-0.0413 0.73036,-0.0276 0.27561,-0.15158 0.64768,-0.19292 0.38585,-0.0551 0.7028,-0.16537 0.11024,0.0413 0.19292,0.15159 0.0827,0.0965 0.15159,0.19292 0.0827,0.0827 0.16536,0.15159 0.0827,0.0689 0.20671,0.0551 0.0551,0.0551 0.0689,0.1378 0.0276,0.0689 0.0413,0.13781 0.0138,0.0689 0.0413,0.12402 0.0413,0.0413 0.12403,0.0276 -0.20671,0.45475 -0.48232,0.7028 -0.26182,0.23427 -0.60633,0.35829 -0.34451,0.12402 -0.7717,0.19292 -0.41342,0.0689 -0.92329,0.16537 -0.12402,0.0276 -0.20671,-0.0138 -0.0827,-0.0276 -0.19292,-0.0276 -0.31695,0.0689 -0.75792,0.12402 -0.44097,0.0551 -0.89573,0.0413 -0.45475,-0.0138 -0.86816,-0.12402 -0.41341,-0.0965 -0.67524,-0.35829 -0.11024,-0.0965 -0.15158,-0.22049 -0.0276,-0.1378 -0.17915,-0.2067 -0.0138,-0.17915 -0.0551,-0.39963 -0.0413,-0.22049 -0.0827,-0.45476 -0.0413,-0.24804 -0.0689,-0.48231 -0.0138,-0.23427 0.0276,-0.42719 0.0413,-0.20671 0.16536,-0.37207 0.1378,-0.16537 0.0965,-0.35829 0.0689,-0.0138 0.0827,-0.0689 0.0138,-0.0689 0.11024,-0.0551 0.0827,-0.24805 0.17914,-0.46854 0.0965,-0.22048 0.19293,-0.42719 0.11024,-0.20671 0.2067,-0.41341 0.11025,-0.22049 0.20671,-0.48231 -0.19292,-0.17915 -0.28939,-0.38586 -0.0827,-0.22048 -0.12402,-0.42719 -0.0413,-0.22048 -0.0689,-0.44097 -0.0276,-0.23427 -0.0965,-0.46853 0.13781,-0.20671 0.33073,-0.33073 0.20671,-0.13781 0.44098,-0.22049 0.23426,-0.0827 0.50987,-0.1378 0.27561,-0.0551 0.57878,-0.12402 0.55121,-0.17915 0.9784,-0.27561 0.44098,-0.0965 0.85439,-0.15159 0.42719,-0.0689 0.88194,-0.12402 0.45475,-0.0551 1.03353,-0.16536 0.12402,0.12402 0.23427,0.12402 0.0551,-0.12402 0.12402,-0.0689 0.0827,0.0413 0.0689,-0.0827 0.13781,0.23427 0.34451,0.39964 0.22049,0.15158 0.48231,0.26182 z"
           style="font-size:14.11111069px;fill:#efffff;fill-opacity:1;stroke-width:0.26458332"
           id="path914" />
        <path
           d="m 169.01881,220.22651 q -0.15158,0.55121 -0.27561,0.8406 -0.11024,0.27561 -0.3445,0.57878 -0.17915,-0.0276 -0.24805,0.0413 -0.0689,0.0689 -0.15159,0.12402 -0.12402,0.0276 -0.17914,0 -0.0551,-0.0276 -0.0965,-0.0689 -0.0413,-0.0276 -0.11025,-0.0689 -0.0551,-0.0276 -0.17914,-0.0276 -0.0276,-0.11025 -0.0689,-0.20671 -0.0276,-0.0965 -0.17915,-0.0689 0.0276,-0.11024 0.0138,-0.17915 -0.0138,-0.0827 -0.0413,-0.1378 -0.0138,-0.0689 -0.0276,-0.12402 -0.0138,-0.0689 0.0138,-0.16537 -0.0689,0 -0.11024,-0.0965 -0.0413,-0.0965 -0.0965,-0.19292 0.0413,-0.24805 0.0827,-0.46854 0.0413,-0.22048 0.0965,-0.41341 0.0689,-0.19292 0.11024,-0.38585 0.0413,-0.19293 -0.0413,-0.39963 0.0551,0.0413 0.0827,-0.0138 0.0276,-0.0689 0.0413,-0.16537 0.0138,-0.11024 0.0138,-0.2067 0,-0.11024 -0.0138,-0.17915 0.1378,-0.35829 0.22048,-0.73036 0.0965,-0.38585 0.16537,-0.75792 0.0827,-0.37207 0.16536,-0.73036 0.0827,-0.35829 0.22049,-0.66146 0.15158,-0.0276 0.33073,0.0413 0.19292,0.0551 0.23426,0.15159 0.35829,-0.27561 0.6339,-0.66146 0.27561,-0.39963 0.565,-0.7717 0.28938,-0.37207 0.63389,-0.66146 0.35829,-0.28939 0.89573,-0.34451 0.27561,0.20671 0.60633,0.42719 0.34451,0.20671 0.565,0.55122 0.11024,0.0551 0.17914,0.12402 0.0827,0.0551 0.19293,0.12403 v 0.16536 q 0.16536,0.15158 0.26183,0.35829 0.11024,0.19293 0.19292,0.42719 0.0827,0.22049 0.16537,0.45475 0.0827,0.22049 0.19292,0.4272 -0.0276,0.0689 -0.0276,0.12402 0,0.0413 0.0138,0.0965 0.0276,0.0551 0.0413,0.11025 0.0138,0.0551 0,0.15158 -0.0413,0.60634 -0.39963,0.97841 -0.34451,0.37207 -0.8406,0.62011 -0.49609,0.23427 -1.06109,0.39963 -0.565,0.16537 -1.01975,0.35829 0,0.0551 0.0413,0.0551 0.0551,0 0.0413,0.0689 0.33073,0.2067 0.52366,0.33073 0.19292,0.12402 0.35829,0.2067 0.17914,0.0827 0.37207,0.15159 0.2067,0.0551 0.56499,0.1378 0.35829,0.0827 0.55122,0.1378 0.20671,0.0413 0.37207,0.0827 0.16536,0.0276 0.33073,0.0551 0.17914,0.0138 0.49609,0.0413 0.12403,0.12402 0.20671,0.30317 0.0965,0.16536 0.12402,0.34451 0.0276,0.16536 0.0138,0.33073 -0.0138,0.15158 -0.0965,0.24804 0.0138,0.0413 0.0551,0.0413 0.0551,-0.0138 0.11024,0 -0.0827,0.0551 -0.1378,0.13781 -0.0551,0.0827 -0.11024,0.16536 -0.0551,0.0827 -0.12403,0.13781 -0.0689,0.0689 -0.19292,0.0827 -0.42719,0.16536 -1.07487,0.0138 -0.64768,-0.1378 -1.63987,-0.52365 -0.49609,-0.19293 -0.81304,-0.33073 -0.30317,-0.15159 -0.53743,-0.28939 -0.22049,-0.15159 -0.41342,-0.31695 -0.17914,-0.16537 -0.44097,-0.39963 z m 1.9706,-4.72667 q -0.15159,0.22048 -0.34451,0.39963 -0.17915,0.17914 -0.35829,0.37207 -0.16537,0.17914 -0.30317,0.41341 -0.1378,0.22049 -0.19293,0.52365 0.48232,-0.0551 1.00597,-0.26182 0.52366,-0.22049 0.99219,-0.41341 -0.0551,-0.4272 -0.30317,-0.68902 -0.23427,-0.26183 -0.49609,-0.34451 z"
           style="font-size:14.11111069px;fill:#efffff;fill-opacity:1;stroke-width:0.26458332"
           id="path916" />
        <path
           d="m 180.29117,218.86225 q -0.41341,-0.23427 -0.6339,-0.66146 -0.22049,-0.42719 -0.24805,-0.81304 0.0413,-0.33073 0.17915,-0.50987 0.12402,-0.19293 0.30317,-0.30317 0.17914,-0.12403 0.37207,-0.17915 0.19292,-0.0689 0.37207,-0.11024 l 0.2067,0.0689 q 0.0689,0.0689 0.13781,0.12402 0.0827,0.0551 0.15158,0.11025 0.1378,-0.0551 0.16536,-0.16537 0.0413,-0.11024 0.0827,-0.22048 0.0413,-0.15159 0.0965,-0.30317 0.0551,-0.15159 0.1378,-0.30317 -0.0138,-0.12402 0.0138,-0.22049 0.0276,-0.0965 0.0551,-0.16536 -0.0827,-0.0689 -0.12403,-0.0689 -0.0276,-0.0138 -0.11024,-0.0413 -0.0413,0 -0.0827,0 -0.0413,-0.0138 -0.0965,-0.0276 -0.2067,-0.15159 -0.2756,-0.24805 -0.0551,-0.11024 -0.12403,-0.22049 -0.0689,-0.11024 -0.12402,-0.19292 -0.0551,-0.0827 -0.12402,-0.15159 l -0.16537,-0.11024 0.0827,-0.16536 q 0.0276,-0.0276 0.0276,-0.0689 0,-0.0551 -0.0551,-0.15158 -0.0413,-0.17915 -0.0138,-0.26183 l 0.0276,-0.16536 q 0.13781,-0.17915 0.15159,-0.20671 l 0.1378,-0.1378 q 0.31695,-0.0827 0.64768,-0.17915 0.33073,-0.11024 0.64768,-0.22048 0.31695,-0.11025 0.64767,-0.22049 0.33073,-0.11024 0.66146,-0.19292 0.11025,-0.0965 0.23427,-0.11025 0.1378,-0.0276 0.24805,-0.0413 0.0965,0 0.17914,-0.0138 0.0827,-0.0138 0.12402,-0.0689 0.23427,-0.0827 0.45476,-0.1378 0.41341,-0.11025 1.08865,-0.26183 0.67524,-0.15159 1.51584,-0.22049 l 0.28939,-0.0138 q 0.0827,0.0138 0.16536,0.0138 0.0827,-0.0138 0.16537,-0.0138 0.71658,0 0.95084,0.44097 0.13781,0.0689 0.24805,0.17915 0.11024,0.0965 0.20671,0.19292 0.0689,0.0689 0.12402,0.12403 0.0551,0.0413 0.0965,0.0689 l 0.11024,0.11024 q 0.15159,0.33073 0.0551,0.64768 -0.0827,0.16536 -0.17915,0.19293 -0.0965,0.0276 -0.19292,0.0551 l -0.17915,0.0965 q -0.17914,-0.0138 -0.27561,-0.0138 -0.0827,0 -0.19292,0 -0.41341,0 -0.96463,0.0551 -0.53743,0.0413 -1.10243,0.1378 -0.56499,0.0827 -1.10243,0.22049 -0.53743,0.12402 -0.93707,0.27561 -0.11024,0.0827 -0.28938,0.15158 -0.0413,0.0138 -0.12403,0.0689 0.0138,0.11025 0,0.22049 -0.0138,0.0965 -0.0413,0.19293 -0.0138,0.0689 -0.0276,0.15158 0,0.0689 -0.0138,0.15158 -0.28939,0.34451 -0.27561,0.81305 l -0.0689,0.1378 q -0.0551,0.0551 -0.0965,0.16537 -0.0276,0.0965 0,0.2067 l 0.0551,0.16537 q 0.27561,-0.0276 0.53743,-0.0551 0.27561,-0.0413 0.57878,-0.0827 0.38585,-0.0689 0.7717,-0.11024 0.39963,-0.0551 0.82683,-0.0551 h 0.53743 l -0.12402,0.12402 0.15158,0.0138 -0.0827,0.22049 q 0.0965,0.0413 0.1378,0.0689 0.0551,0.0138 0.0965,0.0413 l 0.0965,0.1378 q 0.0689,0.0413 0.12402,0.13781 0.0551,0.0827 0.0689,0.23426 l -0.0413,0.13781 -0.64768,0.82682 -0.0827,0.11024 -0.1378,-0.0413 q -0.26183,-0.0138 -0.4961,0.0551 -0.11024,0.0276 -0.23426,0.0689 -0.12403,0.0276 -0.24805,0.0276 -0.33073,0.0551 -0.55121,0.0965 -0.22049,0.0276 -0.44098,0.0551 -0.30317,0.0551 -0.59255,0.11024 -0.27561,0.0413 -0.52366,0.13781 -0.15158,0.0138 -0.17914,0.0138 -0.0276,-0.0138 -0.0551,-0.0138 -0.13781,0 -0.27561,0.0413 -0.13781,0.0413 -0.26183,0.0827 -0.0827,0.0689 -0.11024,0.15159 -0.0276,0.0689 -0.0551,0.15158 -0.0276,0.0965 -0.0827,0.19293 -0.0413,0.0827 -0.11024,0.17914 l 0.0138,0.24805 q -0.12402,0.0276 -0.12402,0.0413 0,0 -0.0138,0 0,0.11024 -0.0413,0.2067 -0.0276,0.0965 -0.0551,0.17915 -0.0276,0.0551 -0.0413,0.0965 -0.0138,0.0413 -0.0138,0.0827 0.13781,0.24805 0.0689,0.565 -0.0551,0.26183 -0.20671,0.46853 -0.15158,0.19293 -0.35829,0.30317 -0.22049,0.0276 -0.33073,-0.0138 -0.0965,-0.0413 -0.20671,-0.0827 -0.0689,-0.0276 -0.1378,-0.0413 -0.0689,-0.0276 -0.1378,-0.0413 l -0.16537,-0.13781 q -0.0413,-0.0827 -0.0965,-0.15158 -0.0551,-0.0827 -0.11024,-0.16537 -0.0689,-0.0965 -0.13781,-0.19292 -0.0689,-0.0965 -0.12402,-0.22049 -0.0965,-0.48231 -0.0413,-0.79926 0.0689,-0.33073 0.17914,-0.64768 0.0276,-0.11024 0.0551,-0.2067 0.0276,-0.0965 0.0551,-0.20671 z"
           style="font-size:14.11111069px;fill:#efffff;fill-opacity:1;stroke-width:0.26458332"
           id="path918" />
        <path
           d="m 195.57361,217.52555 q -0.0138,0.16537 0.0276,0.31695 0.0413,0.15159 0.0965,0.30317 0.0689,0.1378 0.12402,0.28939 0.0551,0.15158 0.0827,0.30317 0.0276,0.19292 0,0.42719 -0.0276,0.22049 -0.0965,0.44097 -0.0689,0.20671 -0.17915,0.38585 -0.11024,0.16537 -0.26182,0.24805 -0.19293,0.24805 -0.46854,0.38585 -0.2756,0.1378 -0.50987,0.33073 -0.15158,0.0965 -0.34451,0.1378 -0.17914,0.0413 -0.37207,0.0827 -0.15158,0.0827 -0.35829,0.17915 -0.20671,0.0827 -0.42719,0.16536 -0.22049,0.0689 -0.44097,0.11025 -0.22049,0.0276 -0.38585,0.0138 -0.41342,0.15158 -0.81305,0.19292 -0.38585,0.0551 -0.9095,-0.0551 -0.4961,0.0689 -0.92329,-0.0413 -0.41341,-0.11024 -0.74414,-0.34451 -0.31695,-0.24805 -0.56499,-0.57878 -0.23427,-0.3445 -0.38586,-0.71658 -0.11024,-0.78548 0.0551,-1.41937 0.16536,-0.64768 0.46853,-1.18512 0.31695,-0.55121 0.71658,-1.00597 0.39963,-0.46853 0.7717,-0.9095 0.0827,0.0276 0.12402,0 0.0551,-0.0413 0.0965,-0.0965 0.0413,-0.0689 0.0827,-0.12403 0.0551,-0.0551 0.12402,-0.0689 0.0965,-0.2067 0.27561,-0.30317 0.19293,-0.11024 0.30317,-0.30317 0.12402,-0.0276 0.2067,-0.0827 0.0827,-0.0551 0.15159,-0.12402 0.0827,-0.0689 0.16536,-0.12402 0.0827,-0.0689 0.19293,-0.0965 v -0.15158 q 0.24805,-0.11024 0.35829,-0.24805 0.12402,-0.15158 0.28939,-0.35829 0.12402,-0.0138 0.19292,-0.0138 0.0827,0 0.23427,-0.0276 0.11024,-0.19292 0.19292,-0.28939 0.0965,-0.0965 0.27561,-0.2067 0.16537,0.0827 0.35829,0.11024 0.20671,0.0276 0.35829,0.17915 0.0138,0.1378 0.0827,0.22048 0.0689,0.0689 0.15159,0.13781 0.0827,0.0551 0.15158,0.12402 0.0827,0.0689 0.11024,0.19292 0.0551,0.0138 0.0689,-0.0138 0.0276,-0.0276 0.0827,-0.0138 0.0413,0.19293 0.0965,0.26183 0.0551,0.0551 0.11024,0.23427 -0.0689,0.1378 -0.11024,0.28938 -0.0276,0.13781 -0.16536,0.20671 -0.0138,0.0965 0.0551,0.11024 0.0689,0 0.0827,0.0689 0.0138,0.12402 -0.0413,0.17914 0.33073,0.53744 0.59256,1.14377 0.26182,0.59256 0.59255,1.12999 z m -1.72255,1.30914 q 0.0551,-0.15158 0.13781,-0.24805 0.0965,-0.0965 0.11024,-0.28939 -0.0689,-0.11024 -0.0827,-0.16536 -0.0138,-0.0689 -0.0138,-0.20671 -0.30317,-0.42719 -0.52366,-0.9095 -0.22048,-0.49609 -0.49609,-0.92329 -0.0276,0.0551 -0.0965,0.11025 -0.0689,0.0551 -0.15159,-0.0276 -0.0276,0.11024 -0.0965,0.16536 -0.0689,0.0413 -0.15158,0.0413 -0.0827,-0.0138 -0.17915,-0.0413 -0.0827,-0.0413 -0.15158,-0.0965 -0.39963,0.31695 -0.79926,0.62012 -0.39964,0.30316 -0.71658,0.70279 -0.0551,0.0276 -0.0689,0.0276 -0.0138,-0.0138 -0.0827,0.0138 -0.11024,0.26182 -0.27561,0.48231 -0.15158,0.2067 -0.30316,0.42719 -0.15159,0.22049 -0.26183,0.46853 -0.11024,0.24805 -0.12403,0.57878 0.23427,0.19293 0.55122,0.23427 0.31695,0.0413 0.64768,0.0138 0.34451,-0.0276 0.66146,-0.0827 0.33073,-0.0689 0.60633,-0.0689 0.57878,-0.1378 0.99219,-0.35829 0.41341,-0.23426 0.86816,-0.46853 z"
           style="font-size:14.11111069px;fill:#efffff;fill-opacity:1;stroke-width:0.26458332"
           id="path920" />
        <path
           d="m 198.63286,220.22651 q -0.15159,0.55121 -0.27561,0.8406 -0.11024,0.27561 -0.34451,0.57878 -0.17915,-0.0276 -0.24805,0.0413 -0.0689,0.0689 -0.15158,0.12402 -0.12403,0.0276 -0.17915,0 -0.0551,-0.0276 -0.0965,-0.0689 -0.0413,-0.0276 -0.11024,-0.0689 -0.0551,-0.0276 -0.17915,-0.0276 -0.0276,-0.11025 -0.0689,-0.20671 -0.0276,-0.0965 -0.17914,-0.0689 0.0276,-0.11024 0.0138,-0.17915 -0.0138,-0.0827 -0.0413,-0.1378 -0.0138,-0.0689 -0.0276,-0.12402 -0.0138,-0.0689 0.0138,-0.16537 -0.0689,0 -0.11024,-0.0965 -0.0413,-0.0965 -0.0965,-0.19292 0.0413,-0.24805 0.0827,-0.46854 0.0413,-0.22048 0.0965,-0.41341 0.0689,-0.19292 0.11025,-0.38585 0.0413,-0.19293 -0.0413,-0.39963 0.0551,0.0413 0.0827,-0.0138 0.0276,-0.0689 0.0413,-0.16537 0.0138,-0.11024 0.0138,-0.2067 0,-0.11024 -0.0138,-0.17915 0.1378,-0.35829 0.22049,-0.73036 0.0965,-0.38585 0.16536,-0.75792 0.0827,-0.37207 0.16536,-0.73036 0.0827,-0.35829 0.22049,-0.66146 0.15158,-0.0276 0.33073,0.0413 0.19293,0.0551 0.23427,0.15159 0.35829,-0.27561 0.63389,-0.66146 0.27561,-0.39963 0.565,-0.7717 0.28939,-0.37207 0.6339,-0.66146 0.35829,-0.28939 0.89572,-0.34451 0.27561,0.20671 0.60634,0.42719 0.34451,0.20671 0.56499,0.55122 0.11025,0.0551 0.17915,0.12402 0.0827,0.0551 0.19292,0.12403 v 0.16536 q 0.16537,0.15158 0.26183,0.35829 0.11024,0.19293 0.19293,0.42719 0.0827,0.22049 0.16536,0.45475 0.0827,0.22049 0.19293,0.4272 -0.0276,0.0689 -0.0276,0.12402 0,0.0413 0.0138,0.0965 0.0276,0.0551 0.0413,0.11025 0.0138,0.0551 0,0.15158 -0.0413,0.60634 -0.39963,0.97841 -0.34451,0.37207 -0.84061,0.62011 -0.49609,0.23427 -1.06109,0.39963 -0.56499,0.16537 -1.01974,0.35829 0,0.0551 0.0413,0.0551 0.0551,0 0.0413,0.0689 0.33073,0.2067 0.52365,0.33073 0.19293,0.12402 0.35829,0.2067 0.17915,0.0827 0.37207,0.15159 0.20671,0.0551 0.565,0.1378 0.35829,0.0827 0.55121,0.1378 0.20671,0.0413 0.37207,0.0827 0.16537,0.0276 0.33073,0.0551 0.17915,0.0138 0.4961,0.0413 0.12402,0.12402 0.2067,0.30317 0.0965,0.16536 0.12403,0.34451 0.0276,0.16536 0.0138,0.33073 -0.0138,0.15158 -0.0965,0.24804 0.0138,0.0413 0.0551,0.0413 0.0551,-0.0138 0.11024,0 -0.0827,0.0551 -0.13781,0.13781 -0.0551,0.0827 -0.11024,0.16536 -0.0551,0.0827 -0.12402,0.13781 -0.0689,0.0689 -0.19293,0.0827 -0.42719,0.16536 -1.07487,0.0138 -0.64767,-0.1378 -1.63986,-0.52365 -0.4961,-0.19293 -0.81304,-0.33073 -0.30317,-0.15159 -0.53744,-0.28939 -0.22049,-0.15159 -0.41341,-0.31695 -0.17915,-0.16537 -0.44097,-0.39963 z m 1.97059,-4.72667 q -0.15158,0.22048 -0.34451,0.39963 -0.17914,0.17914 -0.35829,0.37207 -0.16536,0.17914 -0.30317,0.41341 -0.1378,0.22049 -0.19292,0.52365 0.48231,-0.0551 1.00597,-0.26182 0.52365,-0.22049 0.99218,-0.41341 -0.0551,-0.4272 -0.30317,-0.68902 -0.23426,-0.26183 -0.49609,-0.34451 z"
           style="font-size:14.11111069px;fill:#efffff;fill-opacity:1;stroke-width:0.26458332"
           id="path922" />
        <path
           d="m 209.89142,218.86225 q -0.41341,-0.23427 -0.63389,-0.66146 -0.22049,-0.42719 -0.24805,-0.81304 0.0413,-0.33073 0.17914,-0.50987 0.12403,-0.19293 0.30317,-0.30317 0.17915,-0.12403 0.37207,-0.17915 0.19293,-0.0689 0.37207,-0.11024 l 0.20671,0.0689 q 0.0689,0.0689 0.1378,0.12402 0.0827,0.0551 0.15159,0.11025 0.1378,-0.0551 0.16536,-0.16537 0.0413,-0.11024 0.0827,-0.22048 0.0413,-0.15159 0.0965,-0.30317 0.0551,-0.15159 0.1378,-0.30317 -0.0138,-0.12402 0.0138,-0.22049 0.0276,-0.0965 0.0551,-0.16536 -0.0827,-0.0689 -0.12402,-0.0689 -0.0276,-0.0138 -0.11024,-0.0413 -0.0413,0 -0.0827,0 -0.0413,-0.0138 -0.0965,-0.0276 -0.2067,-0.15159 -0.27561,-0.24805 -0.0551,-0.11024 -0.12402,-0.22049 -0.0689,-0.11024 -0.12402,-0.19292 -0.0551,-0.0827 -0.12403,-0.15159 l -0.16536,-0.11024 0.0827,-0.16536 q 0.0276,-0.0276 0.0276,-0.0689 0,-0.0551 -0.0551,-0.15158 -0.0413,-0.17915 -0.0138,-0.26183 l 0.0276,-0.16536 q 0.1378,-0.17915 0.15159,-0.20671 l 0.1378,-0.1378 q 0.31695,-0.0827 0.64768,-0.17915 0.33073,-0.11024 0.64767,-0.22048 0.31695,-0.11025 0.64768,-0.22049 0.33073,-0.11024 0.66146,-0.19292 0.11024,-0.0965 0.23427,-0.11025 0.1378,-0.0276 0.24804,-0.0413 0.0965,0 0.17915,-0.0138 0.0827,-0.0138 0.12402,-0.0689 0.23427,-0.0827 0.45476,-0.1378 0.41341,-0.11025 1.08865,-0.26183 0.67523,-0.15159 1.51584,-0.22049 l 0.28939,-0.0138 q 0.0827,0.0138 0.16536,0.0138 0.0827,-0.0138 0.16536,-0.0138 0.71658,0 0.95085,0.44097 0.1378,0.0689 0.24805,0.17915 0.11024,0.0965 0.2067,0.19292 0.0689,0.0689 0.12403,0.12403 0.0551,0.0413 0.0965,0.0689 l 0.11024,0.11024 q 0.15159,0.33073 0.0551,0.64768 -0.0827,0.16536 -0.17914,0.19293 -0.0965,0.0276 -0.19293,0.0551 l -0.17914,0.0965 q -0.17915,-0.0138 -0.27561,-0.0138 -0.0827,0 -0.19292,0 -0.41342,0 -0.96463,0.0551 -0.53744,0.0413 -1.10243,0.1378 -0.565,0.0827 -1.10243,0.22049 -0.53744,0.12402 -0.93707,0.27561 -0.11024,0.0827 -0.28939,0.15158 -0.0413,0.0138 -0.12402,0.0689 0.0138,0.11025 0,0.22049 -0.0138,0.0965 -0.0413,0.19293 -0.0138,0.0689 -0.0276,0.15158 0,0.0689 -0.0138,0.15158 -0.28939,0.34451 -0.27561,0.81305 l -0.0689,0.1378 q -0.0551,0.0551 -0.0965,0.16537 -0.0276,0.0965 0,0.2067 l 0.0551,0.16537 q 0.27561,-0.0276 0.53743,-0.0551 0.27561,-0.0413 0.57878,-0.0827 0.38585,-0.0689 0.7717,-0.11024 0.39963,-0.0551 0.82682,-0.0551 h 0.53744 l -0.12403,0.12402 0.15159,0.0138 -0.0827,0.22049 q 0.0965,0.0413 0.1378,0.0689 0.0551,0.0138 0.0965,0.0413 l 0.0965,0.1378 q 0.0689,0.0413 0.12402,0.13781 0.0551,0.0827 0.0689,0.23426 l -0.0413,0.13781 -0.64768,0.82682 -0.0827,0.11024 -0.1378,-0.0413 q -0.26183,-0.0138 -0.4961,0.0551 -0.11024,0.0276 -0.23426,0.0689 -0.12403,0.0276 -0.24805,0.0276 -0.33073,0.0551 -0.55122,0.0965 -0.22048,0.0276 -0.44097,0.0551 -0.30317,0.0551 -0.59256,0.11024 -0.2756,0.0413 -0.52365,0.13781 -0.15158,0.0138 -0.17914,0.0138 -0.0276,-0.0138 -0.0551,-0.0138 -0.1378,0 -0.2756,0.0413 -0.13781,0.0413 -0.26183,0.0827 -0.0827,0.0689 -0.11024,0.15159 -0.0276,0.0689 -0.0551,0.15158 -0.0276,0.0965 -0.0827,0.19293 -0.0413,0.0827 -0.11024,0.17914 l 0.0138,0.24805 q -0.12402,0.0276 -0.12402,0.0413 0,0 -0.0138,0 0,0.11024 -0.0413,0.2067 -0.0276,0.0965 -0.0551,0.17915 -0.0276,0.0551 -0.0413,0.0965 -0.0138,0.0413 -0.0138,0.0827 0.13781,0.24805 0.0689,0.565 -0.0551,0.26183 -0.2067,0.46853 -0.15159,0.19293 -0.35829,0.30317 -0.22049,0.0276 -0.33073,-0.0138 -0.0965,-0.0413 -0.20671,-0.0827 -0.0689,-0.0276 -0.1378,-0.0413 -0.0689,-0.0276 -0.1378,-0.0413 l -0.16537,-0.13781 q -0.0413,-0.0827 -0.0965,-0.15158 -0.0551,-0.0827 -0.11025,-0.16537 -0.0689,-0.0965 -0.1378,-0.19292 -0.0689,-0.0965 -0.12402,-0.22049 -0.0965,-0.48231 -0.0413,-0.79926 0.0689,-0.33073 0.17914,-0.64768 0.0276,-0.11024 0.0551,-0.2067 0.0276,-0.0965 0.0551,-0.20671 z"
           style="font-size:14.11111069px;fill:#efffff;fill-opacity:1;stroke-width:0.26458332"
           id="path924" />
        <path
           d="m 224.58131,220.50212 q -0.0827,0.23426 -0.24805,0.48231 -0.15158,0.23427 -0.37207,0.42719 -0.2067,0.17915 -0.46853,0.30317 -0.26183,0.12402 -0.55121,0.1378 -0.17915,-0.0413 -0.24805,-0.0965 -0.0551,-0.0413 -0.12403,-0.0827 -0.0413,-0.0276 -0.0827,-0.0413 -0.0276,-0.0276 -0.0551,-0.0413 l -0.16536,-0.0689 0.0551,-0.17914 q 0.0276,-0.11024 -0.0138,-0.16537 -0.0413,-0.0689 -0.16537,-0.17914 -0.0413,-0.0413 -0.0827,-0.0827 -0.0413,-0.0413 -0.0689,-0.0827 l -0.23427,-0.26183 0.37207,-0.0965 q 0.34451,-0.0965 0.45476,-0.24805 0.12402,-0.15159 0.0965,-0.50988 -0.27561,-0.0551 -0.46854,-0.0138 -0.17914,0.0413 -0.37207,0.0965 -0.24804,0.0689 -0.50987,0.12402 -0.24805,0.0413 -0.55121,0.0413 -0.11025,0 -0.20671,0 -0.0965,-0.0138 -0.20671,-0.0276 l -0.1378,-0.0276 q -0.0276,-0.15158 -0.0551,-0.16537 -0.0276,-0.0276 -0.0551,-0.0551 -0.0689,-0.0689 -0.15159,-0.17914 -0.0689,-0.12402 -0.0276,-0.30317 -0.0689,-0.12402 -0.0827,-0.24805 -0.0827,0.16537 -0.12402,0.34451 l -0.0551,0.13781 -0.1378,0.0276 q -0.0276,0.0138 -0.0413,0.0689 -0.0138,0.0413 -0.0138,0.0689 l -0.0689,0.23427 q -0.0276,0.0276 -0.0551,0.0551 -0.0276,0.0138 -0.0551,0.0413 -0.0276,0.12402 -0.0689,0.24805 -0.0413,0.12402 -0.0827,0.23426 -0.0689,0.17915 -0.12402,0.35829 -0.0413,0.16537 -0.0276,0.33073 l -0.0551,0.15159 q -0.0689,0.0827 -0.15158,0.1378 -0.0827,0.0413 -0.16536,0.0827 -0.0276,0.0276 -0.0827,0.0551 -0.0413,0.0138 -0.0689,0.0276 l -0.0413,0.15158 -0.16536,0.0276 q -0.15159,0.0276 -0.22049,0.0413 -0.0551,0.0138 -0.1378,0.0138 l -0.13781,-0.0138 q -0.15158,-0.12402 -0.23426,-0.19292 -0.0827,-0.0827 -0.19293,-0.15159 -0.12402,-0.16536 -0.1378,-0.24805 -0.0138,-0.0827 -0.0276,-0.15158 -0.0276,-0.0827 -0.0276,-0.1378 -0.0138,-0.0551 -0.0413,-0.0827 l -0.17914,-0.16536 0.15158,-0.12402 0.0138,-0.23427 q 0.27561,-0.7028 0.57878,-1.35048 0.31695,-0.64768 0.64768,-1.32291 0.11024,-0.22049 0.2067,-0.44098 0.11025,-0.22048 0.22049,-0.44097 -0.0138,-0.0413 -0.0138,-0.0965 0,-0.0551 0.0276,-0.12402 0.15158,-0.23427 0.24805,-0.41342 0.0965,-0.19292 0.19292,-0.38585 0.11024,-0.23426 0.22049,-0.45475 0.12402,-0.22049 0.30317,-0.45475 l 0.22048,-0.0965 q 0.0413,-0.0138 0.0965,-0.0276 0.0551,-0.0276 0.12403,-0.0276 l 0.2067,0.0276 q 0.38585,-0.17914 0.67524,-0.49609 0.28939,-0.33073 0.59256,-0.78548 l 0.1378,-0.19293 0.17915,0.11025 q 0.0689,0.0413 0.19292,0.0827 0.12403,0.0276 0.26183,0.0689 0.24805,0.0551 0.46853,0.12402 0.22049,0.0689 0.35829,0.20671 0.0827,0.22049 0.0965,0.33073 0.0138,0.11024 0.0413,0.22049 0.0413,0.23426 0.0689,0.46853 0.0413,0.23427 0.0551,0.52365 0.0689,0.23427 0.11024,0.46854 0.0551,0.22048 0.0965,0.45475 0.0689,0.33073 0.1378,0.64768 0.0689,0.30317 0.17915,0.57877 0.11024,0 0.1378,0.0138 0.0689,-0.0276 0.1378,-0.0413 0.0827,-0.0138 0.17915,-0.0276 l 0.15158,-0.0138 0.0551,0.1378 q 0.0138,0.0689 0.13781,0.13781 0.17914,0.0138 0.26182,0.0827 0.0827,0.0551 0.15159,0.12402 0.0551,0.0551 0.11024,0.0827 l 0.20671,0.0827 -0.11025,0.2067 q -0.1378,0.24805 -0.39963,0.48232 -0.24804,0.22048 -0.56499,0.37207 0.0138,0.0827 0.0138,0.16536 0.0138,0.0689 0.0413,0.15159 0.0413,0.23426 0.0689,0.48231 0.0276,0.24805 0,0.50987 z m -3.98253,-2.38401 q 0.41341,-0.0276 0.74414,-0.0551 0.34451,-0.0413 0.75792,-0.12403 -0.0965,-0.41341 -0.2067,-0.85438 -0.11025,-0.45475 -0.23427,-0.89572 l -0.0827,0.1378 q -0.27561,0.28939 -0.53744,0.64768 -0.24804,0.35829 -0.42719,0.67524 -0.0827,0.12402 -0.16536,0.24804 -0.0827,0.12403 -0.15159,0.24805 0.0827,-0.0138 0.15159,-0.0138 0.0827,0 0.15158,-0.0138 z"
           style="font-size:14.11111069px;fill:#efffff;fill-opacity:1;stroke-width:0.26458332"
           id="path926" />
        <path
           d="m 229.1564,221.50808 q -0.38585,0.12403 -0.8406,0.24805 -0.45476,0.12402 -0.90951,0.12402 -0.68902,0 -1.08865,-0.34451 -0.0689,-0.15158 -0.12402,-0.2067 -0.0413,-0.0551 -0.0827,-0.11024 -0.0276,-0.0689 -0.0413,-0.17915 -0.16536,-0.19292 -0.26182,-0.44097 -0.0965,-0.26183 -0.13781,-0.52366 -0.0276,-0.2756 -0.0138,-0.55121 0.0276,-0.27561 0.0965,-0.52366 0.0276,-0.0551 0.0276,-0.11024 0.0138,-0.0551 0.0276,-0.12402 0.0551,-0.22049 0.11024,-0.42719 0.0689,-0.20671 0.17915,-0.35829 -0.0551,-0.12403 0,-0.27561 0.0551,-0.15159 0.12402,-0.27561 0.19292,-0.52365 0.31695,-0.88194 0.1378,-0.37207 0.27561,-0.73036 0.23426,-0.62012 0.44097,-1.22646 0.2067,-0.60633 0.37207,-1.30913 0.11024,-0.0689 0.16536,-0.0965 0.0827,-0.0276 0.13781,-0.0413 0.24804,0.12403 0.57877,0.24805 0.33073,0.11024 0.55122,0.11024 0.11024,0.0689 0.1378,0.11025 0.0276,0.0276 0.0551,0.0551 0.15159,0.17914 0.26183,0.37207 0.11024,0.17914 0.0689,0.48231 -0.0827,0.12402 -0.12402,0.12402 -0.0689,0.27561 -0.15159,0.46854 -0.0689,0.19292 -0.15158,0.38585 -0.0965,0.2067 -0.17915,0.41341 -0.0827,0.2067 -0.1378,0.50987 -0.0551,0.0689 -0.0827,0.12403 -0.0138,0.0551 -0.0413,0.12402 -0.0276,0.0689 -0.0689,0.15158 -0.0276,0.0689 -0.0965,0.12403 -0.0413,0.35829 -0.1378,0.57877 -0.0827,0.22049 -0.17915,0.44098 -0.16536,0.39963 -0.30316,0.79926 -0.12403,0.39963 -0.15159,0.9095 0.0689,-0.0276 0.12403,-0.0276 0.0689,0 0.12402,0 0.12402,0 0.28939,0.0413 0.41341,-0.22048 0.89572,-0.26182 0.4961,-0.0413 0.97841,-0.0551 0.19292,0 0.38585,0 0.19292,0 0.35829,-0.0276 0.12402,0.0689 0.15158,0.0827 0.0413,0 0.11025,0 0.0965,0 0.16536,0.0138 0.16537,0.15158 0.31695,0.22048 0.15158,0.0689 0.31695,0.12403 0.15158,0.0551 0.28939,0.12402 0.15158,0.0551 0.28938,0.16536 l 0.0965,0.59256 q 0.0965,0.12402 0.0827,0.16537 0,0.11024 -0.0551,0.16536 l 0.0276,0.15158 q -0.20671,0.0413 -0.28939,0.0965 -0.0689,0.0551 -0.1378,0.12402 -0.11025,0.0138 -0.16537,0.0138 -0.0413,0 -0.0827,0 -0.19293,0 -0.46853,0.0689 -0.37207,-0.12402 -0.7717,-0.12402 -0.15159,0 -0.31695,0.0138 -0.16537,0.0138 -0.33073,0.0276 -0.16537,0.0276 -0.34451,0.0413 -0.16537,0.0138 -0.34451,0.0138 z"
           style="font-size:14.11111069px;fill:#efffff;fill-opacity:1;stroke-width:0.26458332"
           id="path928" />
        <path
           d="m 236.68049,221.50808 q -0.38585,0.12403 -0.84061,0.24805 -0.45475,0.12402 -0.9095,0.12402 -0.68902,0 -1.08865,-0.34451 -0.0689,-0.15158 -0.12403,-0.2067 -0.0413,-0.0551 -0.0827,-0.11024 -0.0276,-0.0689 -0.0413,-0.17915 -0.16536,-0.19292 -0.26183,-0.44097 -0.0965,-0.26183 -0.1378,-0.52366 -0.0276,-0.2756 -0.0138,-0.55121 0.0276,-0.27561 0.0965,-0.52366 0.0276,-0.0551 0.0276,-0.11024 0.0138,-0.0551 0.0276,-0.12402 0.0551,-0.22049 0.11025,-0.42719 0.0689,-0.20671 0.17914,-0.35829 -0.0551,-0.12403 0,-0.27561 0.0551,-0.15159 0.12402,-0.27561 0.19293,-0.52365 0.31695,-0.88194 0.13781,-0.37207 0.27561,-0.73036 0.23427,-0.62012 0.44097,-1.22646 0.20671,-0.60633 0.37207,-1.30913 0.11025,-0.0689 0.16537,-0.0965 0.0827,-0.0276 0.1378,-0.0413 0.24805,0.12403 0.57878,0.24805 0.33073,0.11024 0.55121,0.11024 0.11025,0.0689 0.13781,0.11025 0.0276,0.0276 0.0551,0.0551 0.15158,0.17914 0.26183,0.37207 0.11024,0.17914 0.0689,0.48231 -0.0827,0.12402 -0.12403,0.12402 -0.0689,0.27561 -0.15158,0.46854 -0.0689,0.19292 -0.15158,0.38585 -0.0965,0.2067 -0.17915,0.41341 -0.0827,0.2067 -0.1378,0.50987 -0.0551,0.0689 -0.0827,0.12403 -0.0138,0.0551 -0.0413,0.12402 -0.0276,0.0689 -0.0689,0.15158 -0.0276,0.0689 -0.0965,0.12403 -0.0413,0.35829 -0.1378,0.57877 -0.0827,0.22049 -0.17915,0.44098 -0.16536,0.39963 -0.30317,0.79926 -0.12402,0.39963 -0.15158,0.9095 0.0689,-0.0276 0.12402,-0.0276 0.0689,0 0.12402,0 0.12403,0 0.28939,0.0413 0.41341,-0.22048 0.89573,-0.26182 0.49609,-0.0413 0.9784,-0.0551 0.19293,0 0.38586,0 0.19292,0 0.35829,-0.0276 0.12402,0.0689 0.15158,0.0827 0.0413,0 0.11024,0 0.0965,0 0.16537,0.0138 0.16536,0.15158 0.31695,0.22048 0.15158,0.0689 0.31694,0.12403 0.15159,0.0551 0.28939,0.12402 0.15159,0.0551 0.28939,0.16536 l 0.0965,0.59256 q 0.0965,0.12402 0.0827,0.16537 0,0.11024 -0.0551,0.16536 l 0.0276,0.15158 q -0.2067,0.0413 -0.28938,0.0965 -0.0689,0.0551 -0.13781,0.12402 -0.11024,0.0138 -0.16536,0.0138 -0.0413,0 -0.0827,0 -0.19293,0 -0.46854,0.0689 -0.37207,-0.12402 -0.7717,-0.12402 -0.15158,0 -0.31695,0.0138 -0.16536,0.0138 -0.33073,0.0276 -0.16536,0.0276 -0.34451,0.0413 -0.16536,0.0138 -0.34451,0.0138 z"
           style="font-size:14.11111069px;fill:#efffff;fill-opacity:1;stroke-width:0.26458332"
           id="path930" />
      </g>
    </g>
  </g>
</svg>
